<?xml version="1.0" standalone="no"?>
<!DOCTYPE svg PUBLIC "-//W3C//DTD SVG 20010904//EN"
 "http://www.w3.org/TR/2001/REC-SVG-20010904/DTD/svg10.dtd">
<svg version="1.0" xmlns="http://www.w3.org/2000/svg"
 width="4167.000000pt" height="4167.000000pt" viewBox="0 0 4167.000000 4167.000000"
 preserveAspectRatio="xMidYMid meet">

<g transform="translate(0.000000,4167.000000) scale(0.100000,-0.100000)"
fill="#000000" stroke="none">
<path d="M15610 37940 c-1260 -69 -2334 -396 -3200 -973 -625 -417 -1130 -966
-1468 -1595 -278 -518 -442 -1048 -523 -1697 -20 -156 -22 -229 -26 -908 l-4
-738 25 26 c40 40 72 32 55 -14 -6 -14 -26 -84 -45 -154 -30 -115 -34 -142
-34 -258 l0 -129 2249 0 2250 0 4 763 c4 740 4 765 26 860 27 121 69 238 117
326 221 404 655 608 1169 551 258 -29 460 -117 621 -272 166 -159 259 -348
312 -633 17 -96 24 -503 10 -597 l-7 -46 29 15 c17 8 30 19 30 24 0 8 43 3 62
-8 15 -8 -5 -33 -26 -33 -19 0 -21 -4 -18 -35 3 -27 1 -35 -12 -35 -10 0 -16
9 -16 24 0 14 -4 27 -9 30 -16 10 -40 -5 -34 -21 3 -8 2 -18 -4 -22 -5 -3 -20
-58 -33 -121 -52 -255 -149 -525 -305 -847 -51 -106 -89 -191 -83 -190 6 1 13
-4 15 -12 4 -9 0 -11 -15 -7 -17 6 -27 -7 -72 -91 -29 -54 -99 -175 -156 -270
-93 -156 -100 -172 -81 -175 17 -2 23 -11 25 -40 2 -27 -1 -38 -10 -38 -21 0
-38 21 -39 49 0 24 -1 25 -12 7 -97 -152 -435 -656 -537 -801 -254 -361 -489
-678 -1929 -2594 l-1445 -1925 74 -144 c109 -213 188 -326 341 -487 120 -126
209 -238 197 -250 -8 -9 -111 68 -185 138 -137 130 -278 323 -413 564 l-62
112 -1004 -1336 -1004 -1336 0 -143 c0 -105 3 -144 13 -147 10 -3 10 -9 0 -26
-19 -31 -16 -78 7 -101 32 -32 25 -67 -12 -61 -5 0 -8 -577 -8 -1284 l0 -1285
2863 0 2863 0 22 68 c12 37 24 86 28 110 5 30 10 40 17 33 13 -13 15 -109 4
-168 l-7 -43 1952 0 c1074 0 1948 4 1942 8 -5 4 -36 28 -68 52 -76 57 -165
163 -211 251 l-36 69 34 0 c47 0 131 -26 202 -63 76 -40 208 -172 255 -255
l35 -62 683 0 682 0 0 1866 c0 1857 0 1866 -20 1871 -14 4 -20 14 -20 33 0 16
-3 35 -6 44 -6 14 -127 16 -1268 16 l-1262 0 -29 -30 c-17 -17 -39 -30 -53
-30 -22 0 -24 3 -18 30 l6 30 -1230 0 -1230 0 0 105 0 105 250 333 c197 263
250 340 250 364 0 36 9 47 24 28 9 -11 154 176 720 928 511 680 703 943 692
945 -19 4 -13 36 12 65 20 22 30 22 34 -3 2 -16 15 -4 59 54 240 315 1165
1550 1248 1666 282 395 721 1092 721 1144 0 41 18 76 39 76 44 0 397 716 584
1183 64 161 69 180 54 188 -38 21 -8 109 37 109 20 0 29 19 94 223 179 555
269 993 324 1577 19 207 16 803 -5 1020 -138 1380 -705 2456 -1722 3264 -230
183 -746 505 -753 471 -2 -9 -15 -15 -30 -15 -40 0 -56 14 -49 42 6 24 -1 29
-121 86 -693 329 -1480 524 -2387 592 -188 15 -813 21 -1005 10z m-1913 -507
c20 -74 -6 -192 -40 -180 -29 9 -40 52 -33 130 8 77 8 77 37 77 23 0 30 -6 36
-27z m5272 -212 c9 -6 11 -18 7 -36 -9 -35 -30 -27 -34 13 -3 33 3 38 27 23z
m-5578 -286 c-23 -42 -58 -102 -78 -133 -39 -59 -146 -172 -163 -172 -15 0
-12 66 4 105 8 19 59 80 114 137 55 57 107 119 117 137 15 30 18 32 32 18 14
-14 12 -23 -26 -92z m344 -526 c-35 -135 -111 -229 -186 -229 -20 0 -21 4 -15
43 11 70 70 176 143 256 l68 75 3 -41 c2 -23 -4 -69 -13 -104z m3800 70 c8
-23 1 -34 -14 -24 -13 8 -15 45 -2 45 5 0 13 -9 16 -21z m405 -144 c0 -8 -4
-15 -9 -15 -13 0 -22 16 -14 24 11 11 23 6 23 -9z m-2064 -80 c8 -20 -24 -75
-44 -75 -43 0 -56 56 -22 90 17 17 24 18 41 10 11 -6 22 -17 25 -25z m-4012
-25 c26 -31 43 -90 32 -109 -9 -14 -126 59 -126 79 0 25 29 60 50 60 10 0 30
-14 44 -30z m-361 -248 c40 -35 8 -68 -59 -60 -33 3 -40 22 -25 62 9 23 15 26
38 20 16 -4 36 -14 46 -22z m5877 -12 c0 -35 -11 -52 -26 -39 -10 8 -11 16 -3
30 5 10 7 19 4 19 -4 0 -3 5 0 10 9 15 25 2 25 -20z m-272 -27 c-5 -25 -28
-28 -28 -4 0 12 6 21 16 21 9 0 14 -7 12 -17z m1036 -16 c6 -9 7 -19 3 -23 -9
-9 -37 15 -37 33 0 18 20 12 34 -10z m24 -85 c-5 -45 -28 -38 -28 8 0 37 2 41
16 30 8 -7 14 -25 12 -38z m-6728 3 c35 -18 40 -53 10 -80 -36 -33 -61 -1 -51
68 4 32 3 31 41 12z m1348 -143 c3 -19 -1 -23 -15 -20 -10 2 -19 14 -21 26 -3
19 1 23 15 20 10 -2 19 -14 21 -26z m4476 5 c12 -19 3 -32 -19 -24 -17 7 -21
51 -3 45 6 -2 16 -12 22 -21z m-3692 -37 c6 0 6 -6 -2 -15 -15 -19 -50 -20
-50 -2 0 19 12 29 28 22 7 -3 18 -5 24 -5z m927 -16 c25 -32 28 -92 6 -133
-19 -37 -98 -107 -136 -120 -29 -10 -31 -9 -45 24 -33 79 -2 188 65 232 46 31
84 30 110 -3z m2899 -10 c2 -26 1 -27 -11 -12 -8 10 -17 15 -20 11 -4 -3 -7 0
-7 9 0 40 34 33 38 -8z m-133 -42 c0 -64 -9 -79 -24 -39 -21 55 -14 113 12
104 8 -2 12 -28 12 -65z m-5781 17 c41 -33 84 -129 57 -129 -17 0 -76 47 -88
70 -15 29 -17 80 -4 80 4 0 20 -9 35 -21z m2171 -69 c12 -19 -6 -48 -33 -52
-15 -3 -35 -9 -44 -13 -15 -6 -18 -2 -18 21 0 22 3 26 10 14 8 -13 14 -11 37
13 30 29 38 32 48 17z m3545 -61 c0 -16 -4 -29 -9 -29 -11 0 -24 48 -16 61 11
17 25 -1 25 -32z m60 32 c0 -5 -5 -22 -11 -38 -10 -27 -11 -27 -25 -9 -23 32
-18 56 11 56 14 0 25 -4 25 -9z m128 -23 c-2 -18 -7 -33 -13 -33 -5 0 -11 15
-13 33 -3 24 1 32 13 32 12 0 16 -8 13 -32z m-3985 -48 c6 -24 -28 -70 -52
-70 -16 0 -51 46 -40 52 68 41 85 45 92 18z m-397 -17 c-10 -10 -19 5 -10 18
6 11 8 11 12 0 2 -7 1 -15 -2 -18z m6324 -59 c17 -15 44 -45 60 -69 25 -36 27
-45 16 -60 -9 -12 -21 -16 -39 -13 -25 5 -27 3 -27 -31 0 -31 -5 -40 -32 -55
-30 -18 -32 -18 -44 -1 -29 40 -26 146 7 231 11 30 20 30 59 -2z m-7710 -14
c16 -17 34 -47 40 -66 10 -30 10 -39 -4 -52 -27 -27 -61 -2 -85 63 -12 31 -21
62 -21 70 0 26 41 16 70 -15z m1894 -32 c22 -35 30 -87 16 -103 -19 -23 -66
-19 -84 7 -19 27 -21 89 -4 106 19 19 56 14 72 -10z m3016 -13 c0 -8 -4 -15
-10 -15 -5 0 -10 7 -10 15 0 8 5 15 10 15 6 0 10 -7 10 -15z m-3230 -35 c0
-33 -19 -40 -40 -15 -16 20 -5 45 20 45 16 0 20 -7 20 -30z m3090 -30 c0 -16
-4 -30 -9 -30 -5 0 -12 -8 -14 -17 -3 -10 -5 -4 -6 14 0 17 2 38 5 47 10 26
24 18 24 -14z m1960 -35 c0 -8 -4 -15 -10 -15 -5 0 -10 7 -10 15 0 8 5 15 10
15 6 0 10 -7 10 -15z m509 -143 c21 -76 -24 -157 -105 -188 -24 -9 -47 -15
-49 -12 -3 3 -6 36 -8 74 -2 67 -1 68 23 69 20 0 27 7 34 38 9 33 13 37 42 37
18 0 36 5 39 10 10 16 14 12 24 -28z m-309 -7 c15 -16 24 -41 28 -74 5 -57 -4
-105 -18 -96 -31 19 -72 158 -55 184 10 16 19 13 45 -14z m-1600 -26 c0 -5 -7
-9 -15 -9 -15 0 -20 12 -9 23 8 8 24 -1 24 -14z m262 -11 c-7 -7 -12 -8 -12
-2 0 14 12 26 19 19 2 -3 -1 -11 -7 -17z m163 -27 c-9 -16 -25 -3 -18 15 4 10
9 12 15 6 6 -6 7 -15 3 -21z m-5578 -23 c39 -42 96 -128 90 -134 -10 -11 -84
66 -111 115 -31 58 -23 65 21 19z m5158 22 c3 -5 -3 -10 -15 -10 -12 0 -18 5
-15 10 3 6 10 10 15 10 5 0 12 -4 15 -10z m70 -10 c7 -12 -12 -40 -26 -40 -5
0 -9 11 -9 25 0 25 23 35 35 15z m135 -5 c0 -8 -4 -15 -10 -15 -5 0 -10 7 -10
15 0 8 5 15 10 15 6 0 10 -7 10 -15z m-1020 -83 c0 -13 -12 -22 -22 -16 -10 6
-1 24 13 24 5 0 9 -4 9 -8z m890 -63 c0 -16 -4 -29 -9 -29 -17 0 -33 29 -26
49 9 29 35 14 35 -20z m-110 0 c0 -5 -7 -9 -15 -9 -15 0 -20 12 -9 23 8 8 24
-1 24 -14z m379 -36 c3 -2 0 -8 -6 -14 -13 -13 -67 7 -58 21 5 9 52 4 64 -7z
m-119 -8 c0 -8 -4 -15 -10 -15 -5 0 -10 7 -10 15 0 8 5 15 10 15 6 0 10 -7 10
-15z m-5200 -60 c0 -17 -2 -18 -24 -9 -23 9 -20 24 4 24 11 0 20 -7 20 -15z
m5251 -30 c5 -29 2 -42 -12 -56 -11 -11 -20 -19 -22 -19 -5 0 -6 74 -1 98 7
35 28 21 35 -23z m-60 8 c-12 -20 -14 -14 -5 12 4 9 9 14 11 11 3 -2 0 -13 -6
-23z m-5161 -8 c0 -8 -4 -15 -10 -15 -5 0 -10 7 -10 15 0 8 5 15 10 15 6 0 10
-7 10 -15z m5117 -1 c-3 -3 -12 -4 -19 -1 -8 3 -5 6 6 6 11 1 17 -2 13 -5z
m-22 -49 c0 -10 -6 -20 -12 -22 -8 -3 -13 5 -13 22 0 17 5 25 13 23 6 -3 12
-13 12 -23z m-55 -4 c13 -25 13 -61 0 -61 -13 0 -30 34 -30 59 0 26 16 27 30
2z m-4978 -18 c28 -27 38 -63 17 -63 -16 0 -69 56 -69 74 0 24 20 19 52 -11z
m4803 -53 c-5 -8 -11 -8 -17 -2 -6 6 -7 16 -3 22 5 8 11 8 17 2 6 -6 7 -16 3
-22z m86 -1 c11 -5 17 -15 13 -20 -3 -6 0 -24 7 -41 10 -25 10 -31 -2 -38 -19
-12 -43 12 -57 57 -9 29 -9 39 1 45 15 10 15 10 38 -3z m141 -62 c-3 -31 -7
-35 -18 -26 -20 16 -18 57 4 61 9 3 17 4 18 4 1 -1 -1 -18 -4 -39z m-832 19
c0 -3 -4 -8 -10 -11 -5 -3 -10 -1 -10 4 0 6 5 11 10 11 6 0 10 -2 10 -4z m641
-49 c-13 -13 -26 -3 -16 12 3 6 11 8 17 5 6 -4 6 -10 -1 -17z m321 1 c-7 -7
-12 -20 -12 -30 0 -22 -13 -23 -34 -2 -23 22 -20 34 8 34 14 0 28 5 31 11 4 6
10 8 13 4 3 -3 0 -11 -6 -17z m3752 -17 c21 -23 45 -86 46 -118 0 -32 -27 -55
-50 -43 -32 17 -52 116 -34 164 8 21 17 20 38 -3z m-3832 -16 c6 -14 8 -28 5
-32 -10 -9 -49 35 -42 47 11 17 25 11 37 -15z m84 -39 c16 -17 19 -36 4 -36
-9 0 -30 31 -30 44 0 10 11 7 26 -8z m-4839 -131 c75 -34 123 -69 123 -87 0
-10 -81 -1 -120 14 -67 24 -135 94 -155 158 -7 23 -5 22 33 -12 22 -20 76 -53
119 -73z m4895 83 c-7 -7 -12 -8 -12 -2 0 14 12 26 19 19 2 -3 -1 -11 -7 -17z
m-202 -83 c0 -8 -4 -15 -10 -15 -5 0 -10 7 -10 15 0 8 5 15 10 15 6 0 10 -7
10 -15z m4155 -106 c25 -23 68 -72 96 -110 27 -37 66 -78 85 -89 31 -20 34
-26 34 -68 0 -53 -14 -110 -33 -136 -12 -16 -21 -9 -109 76 -111 108 -139 156
-145 248 -4 58 7 120 22 120 3 0 26 -19 50 -41z m-7305 -235 c0 -33 -33 -30
-38 4 -3 17 2 22 17 22 16 0 21 -6 21 -26z m3350 -24 c0 -5 -7 -10 -16 -10 -8
0 -12 5 -9 10 3 6 10 10 16 10 5 0 9 -4 9 -10z m157 -32 c-3 -8 -6 -5 -6 6 -1
11 2 17 5 13 3 -3 4 -12 1 -19z m224 -6 c-15 -28 -39 -45 -51 -37 -8 5 -4 15
11 31 27 29 55 33 40 6z m-461 -33 c0 -6 -4 -7 -10 -4 -5 3 -10 11 -10 16 0 6
5 7 10 4 6 -3 10 -11 10 -16z m214 5 c5 -14 4 -15 -9 -4 -17 14 -19 20 -6 20
5 0 12 -7 15 -16z m4 -35 c-2 -6 -8 -10 -13 -10 -5 0 -11 4 -13 10 -2 6 4 11
13 11 9 0 15 -5 13 -11z m-288 -30 c0 -12 -27 -11 -35 1 -11 17 5 32 21 19 8
-6 14 -15 14 -20z m70 10 c0 -5 -4 -9 -10 -9 -5 0 -10 7 -10 16 0 8 5 12 10 9
6 -3 10 -10 10 -16z m194 -90 c-3 -5 -10 -7 -15 -3 -5 3 -7 10 -3 15 3 5 10 7
15 3 5 -3 7 -10 3 -15z m-6468 -41 c13 -26 15 -48 11 -112 -10 -117 -20 -119
-42 -4 -14 74 -11 148 6 148 5 0 16 -14 25 -32z m6744 13 c0 -5 -6 -14 -14
-20 -16 -13 -32 2 -21 19 8 12 35 13 35 1z m-650 -37 c0 -2 -9 0 -20 6 -11 6
-20 13 -20 16 0 2 9 0 20 -6 11 -6 20 -13 20 -16z m531 -7 c-13 -13 -26 -3
-16 12 3 6 11 8 17 5 6 -4 6 -10 -1 -17z m1621 -94 c19 -17 26 -83 8 -83 -19
0 -50 40 -50 63 0 39 14 46 42 20z m-2020 -75 c-7 -7 -12 -8 -12 -2 0 14 12
26 19 19 2 -3 -1 -11 -7 -17z m1418 -154 c15 -64 18 -68 54 -80 21 -8 63 -29
94 -48 80 -47 125 -60 164 -47 17 6 34 11 39 11 10 0 43 -144 36 -162 -4 -11
-18 -14 -61 -10 -51 4 -57 2 -85 -26 l-31 -30 -47 24 c-27 13 -82 34 -123 46
-101 30 -153 80 -170 163 -11 54 -11 58 11 81 12 13 28 24 34 24 7 0 15 23 19
57 7 62 23 90 39 74 6 -6 18 -40 27 -77z m-6628 -61 c31 -33 48 -73 48 -114 0
-51 -40 -31 -68 34 -16 36 -53 34 -62 -3 -11 -47 -111 -37 -160 15 l-23 24 74
36 c95 45 153 48 191 8z m7218 -14 c25 -6 73 -24 108 -41 l62 -31 0 -53 c0
-30 -2 -54 -5 -54 -3 0 -28 11 -55 25 -48 24 -157 57 -232 70 -37 6 -38 7 -38
50 l0 45 58 0 c31 0 77 -5 102 -11z m-1616 -224 c-7 -17 -30 -20 -39 -6 -4 8
9 15 37 20 4 0 5 -6 2 -14z m-314 -53 c0 -26 -25 -5 -28 24 -2 28 -2 28 13 10
8 -11 15 -26 15 -34z m482 -44 c-7 -7 -12 -8 -12 -2 0 14 12 26 19 19 2 -3 -1
-11 -7 -17z m-500 -40 c-7 -7 -12 -8 -12 -2 0 14 12 26 19 19 2 -3 -1 -11 -7
-17z m175 -20 c-3 -7 -5 -2 -5 12 0 14 2 19 5 13 2 -7 2 -19 0 -25z m209 -51
c-3 -18 -5 -34 -6 -37 0 -3 -7 6 -14 20 -15 26 -16 47 -3 43 4 -2 7 2 7 8 0 5
4 7 10 4 5 -3 8 -20 6 -38z m414 -42 c0 -30 -4 -55 -8 -55 -20 0 -52 47 -46
66 10 28 25 44 40 44 10 0 14 -15 14 -55z m-681 8 c-1 -34 -2 -35 -9 -13 -11
36 -11 50 0 50 6 0 10 -17 9 -37z m871 -35 c0 -21 -4 -38 -10 -38 -14 0 -34
75 -26 97 7 17 8 17 22 -1 8 -11 14 -37 14 -58z m-1020 12 c0 -11 -4 -20 -10
-20 -5 0 -10 9 -10 20 0 11 5 20 10 20 6 0 10 -9 10 -20z m2490 -19 c15 -28
13 -91 -3 -91 -21 0 -37 22 -37 51 0 56 20 76 40 40z m1464 -37 c32 -12 6
-103 -35 -125 -20 -10 -25 -8 -46 15 -32 38 -29 59 14 89 41 29 44 30 67 21z
m-680 -60 c11 -28 6 -51 -15 -78 -25 -31 -64 -34 -79 -6 -9 16 -6 27 15 55 36
47 68 58 79 29z m-7724 -32 c25 -31 27 -108 3 -134 -22 -25 -46 -23 -83 9 -44
36 -53 66 -35 109 23 57 77 64 115 16z m4617 -34 c-3 -8 -6 -5 -6 6 -1 11 2
17 5 13 3 -3 4 -12 1 -19z m2780 -30 c-19 -163 -17 -158 -47 -158 -43 0 -80
35 -80 76 0 65 56 133 109 134 22 0 23 -2 18 -52z m-1925 27 c0 -5 -5 -11 -11
-13 -6 -2 -11 4 -11 13 0 9 5 15 11 13 6 -2 11 -8 11 -13z m-1030 -77 c-7 -7
-12 -8 -12 -2 0 14 12 26 19 19 2 -3 -1 -11 -7 -17z m3368 -139 c17 -63 10
-93 -22 -97 -18 -2 -31 4 -42 20 -20 28 -20 41 0 84 23 48 50 45 64 -7z
m-3380 -194 c0 -8 -4 -15 -10 -15 -5 0 -10 7 -10 15 0 8 5 15 10 15 6 0 10 -7
10 -15z m4026 -53 c24 3 29 -1 35 -32 7 -31 4 -38 -22 -59 -16 -12 -43 -50
-60 -83 -37 -74 -72 -108 -111 -108 -22 0 -31 6 -39 28 -20 53 -21 115 -2 177
18 58 20 60 53 60 31 0 35 -4 40 -29 8 -44 28 -43 35 1 11 62 13 67 29 54 8
-7 27 -11 42 -9z m-3846 -53 c0 -10 -4 -19 -10 -19 -5 0 -10 12 -10 26 0 14 4
23 10 19 6 -3 10 -15 10 -26z m-178 -31 c-7 -7 -12 -8 -12 -2 0 14 12 26 19
19 2 -3 -1 -11 -7 -17z m340 5 c14 -13 18 -31 18 -93 0 -42 -3 -79 -6 -83 -4
-3 -19 0 -35 9 -27 14 -29 18 -29 80 0 60 11 104 27 104 4 0 15 -7 25 -17z
m3448 -22 c0 -55 -9 -75 -26 -60 -25 21 -15 99 12 99 10 0 14 -12 14 -39z
m-350 -33 c9 -32 9 -43 -2 -49 -23 -16 -43 -5 -61 35 -17 36 -17 39 -1 57 24
26 51 9 64 -43z m-3397 22 c-3 -12 -8 -19 -11 -16 -5 6 5 36 12 36 2 0 2 -9
-1 -20z m455 -2 c10 -13 0 -124 -13 -136 -13 -13 -35 32 -35 69 0 21 -6 40
-12 43 -9 3 -7 9 6 20 24 19 40 20 54 4z m-3638 -74 c0 -39 -13 -50 -34 -28
-16 16 -22 84 -9 98 13 13 43 -35 43 -70z m742 9 c16 -36 23 -75 26 -155 6
-151 -11 -205 -37 -116 -14 46 -28 318 -17 318 4 0 17 -21 28 -47z m5567 13
c48 -25 63 -88 40 -168 -9 -36 -12 -38 -51 -38 -25 0 -49 7 -60 17 -18 16 -19
16 -25 -5 -7 -28 -10 -28 -78 8 -54 28 -64 30 -172 30 -106 0 -115 1 -120 20
-7 26 -19 25 -26 -1 -5 -17 -11 -20 -29 -15 -13 3 -33 6 -45 6 -19 0 -23 6
-23 30 0 45 20 80 45 80 22 0 48 -22 58 -50 3 -9 6 -4 6 12 1 25 3 26 30 15
25 -9 38 -7 89 16 72 33 89 33 119 5 21 -20 24 -20 41 -5 28 26 104 57 140 57
18 0 45 -6 61 -14z m-2902 -28 c-3 -7 -5 -2 -5 12 0 14 2 19 5 13 2 -7 2 -19
0 -25z m803 6 c0 -29 -16 -64 -30 -64 -17 0 -42 48 -35 70 4 14 15 20 36 20
24 0 29 -4 29 -26z m-640 6 c0 -5 -5 -10 -11 -10 -5 0 -7 5 -4 10 3 6 8 10 11
10 2 0 4 -4 4 -10z m1826 -67 c-6 -14 -9 -15 -16 -4 -11 19 -1 46 13 32 5 -5
7 -18 3 -28z m207 17 c42 -12 49 -38 21 -78 -22 -32 -49 -28 -127 20 l-69 42
23 19 c26 21 73 20 152 -3z m-2293 -10 c0 -11 -7 -20 -15 -20 -15 0 -21 21 -8
33 12 13 23 7 23 -13z m1458 -103 c3 -38 -5 -46 -26 -25 -13 13 -16 51 -5 62
14 14 28 -2 31 -37z m1793 -103 c148 -44 251 -144 273 -267 14 -77 -16 -125
-50 -79 -12 16 -14 16 -36 -4 -35 -32 -46 -36 -68 -24 -24 13 -27 57 -6 86 20
27 -2 61 -68 104 -28 19 -62 43 -75 55 -27 23 -60 90 -61 123 0 27 16 28 91 6z
m-1156 -34 c4 -6 4 -24 0 -40 l-6 -29 -35 21 c-35 20 -44 42 -21 51 22 9 56 7
62 -3z m-2062 -55 c-3 -9 -8 -14 -10 -11 -3 3 -2 9 2 15 9 16 15 13 8 -4z m11
-50 c-4 -8 -8 -15 -10 -15 -2 0 -4 7 -4 15 0 8 4 15 10 15 5 0 7 -7 4 -15z
m-464 -186 c0 -11 -4 -17 -10 -14 -5 3 -10 13 -10 21 0 8 5 14 10 14 6 0 10
-9 10 -21z m4326 -25 c9 -34 -7 -49 -35 -35 -20 11 -28 41 -14 54 16 16 43 6
49 -19z m-4406 -154 c0 -11 -7 -20 -15 -20 -15 0 -21 21 -8 33 12 13 23 7 23
-13z m212 -175 c0 -5 -5 -11 -11 -13 -6 -2 -11 4 -11 13 0 9 5 15 11 13 6 -2
11 -8 11 -13z m1321 -33 c7 -59 -7 -125 -34 -164 -12 -16 -60 -55 -108 -87
-47 -32 -93 -70 -100 -85 -8 -14 -21 -26 -28 -26 -26 0 -88 -38 -123 -75 -42
-45 -117 -95 -141 -95 -25 0 -32 30 -24 103 7 60 8 62 37 64 48 4 91 35 113
80 11 23 25 42 32 43 19 0 82 59 99 91 10 21 22 29 41 29 19 0 37 12 62 42 83
96 119 128 143 128 23 0 26 -5 31 -48z m347 -131 c0 -62 -11 -101 -28 -101
-28 0 -52 32 -52 68 0 42 24 72 57 72 20 0 23 -5 23 -39z m-1095 -74 c50 -43
68 -197 23 -197 -55 0 -78 45 -78 151 0 77 10 86 55 46z m-1066 -143 c15 -19
21 -41 21 -77 0 -93 -50 -113 -115 -47 -37 37 -38 41 -25 66 15 28 75 84 90
84 5 0 18 -12 29 -26z m4029 -273 c4 -36 -20 -81 -43 -81 -21 0 -20 69 1 98
21 30 38 23 42 -17z m-3060 -309 c2 -40 0 -52 -11 -52 -18 0 -27 21 -27 64 0
70 34 59 38 -12z m2387 -78 c50 -8 160 -30 245 -50 247 -56 339 -74 435 -87
78 -11 90 -15 93 -33 6 -41 -32 -59 -137 -62 -126 -5 -251 17 -416 72 -147 50
-415 164 -415 178 0 10 55 4 195 -18z m865 -194 c0 -11 -7 -20 -15 -20 -15 0
-21 21 -8 33 12 13 23 7 23 -13z m-3000 -16 c14 -35 12 -90 -4 -149 -27 -104
-51 -118 -94 -55 -16 23 -22 44 -18 61 6 30 87 169 99 169 4 0 12 -12 17 -26z
m-161 -90 c27 -23 31 -32 31 -79 0 -39 -4 -54 -16 -59 -59 -23 -114 18 -114
84 0 81 41 103 99 54z m695 -36 c17 -24 20 -56 10 -107 -9 -44 -38 -41 -63 7
-32 63 -34 82 -15 103 23 25 49 24 68 -3z m-146 -40 c17 -17 15 -68 -2 -68
-16 0 -26 21 -26 56 0 26 10 30 28 12z m528 -27 c-13 -20 -26 -11 -26 16 0 25
1 26 16 11 9 -9 13 -21 10 -27z m-976 -257 c0 -87 0 -87 -36 -122 -35 -34 -37
-35 -50 -17 -16 22 -18 95 -4 144 12 41 47 81 72 81 16 0 18 -9 18 -86z m2785
-59 c0 -10 -5 -20 -11 -22 -13 -4 -27 24 -18 38 9 15 29 4 29 -16z m-4551 -81
c7 -24 -16 -60 -32 -50 -13 8 -16 54 -6 81 6 14 9 14 19 3 7 -7 16 -22 19 -34z
m4352 -150 c12 -29 12 -40 2 -62 -14 -29 -56 -49 -82 -39 -29 11 -16 129 17
149 18 11 48 -11 63 -48z m-456 -206 c0 -13 -6 -31 -14 -40 -16 -21 -61 -39
-80 -32 -8 3 -17 -3 -20 -14 -8 -25 -35 -36 -42 -18 -16 41 25 99 46 66 8 -13
10 -13 10 -1 0 26 42 61 72 61 22 0 28 -4 28 -22z m-590 -322 c0 -25 -5 -48
-10 -51 -20 -12 -40 17 -40 56 0 35 3 39 25 39 23 0 25 -4 25 -44z m-3433 -85
c-8 -101 -46 -161 -111 -177 l-29 -7 6 61 c4 34 13 78 22 98 18 44 70 94 98
94 19 0 20 -4 14 -69z m-189 -43 c25 -25 14 -46 -28 -53 -46 -8 -62 -1 -53 23
15 42 55 56 81 30z m350 -8 c51 -23 51 -40 -2 -57 -30 -11 -43 -10 -71 1 -31
13 -55 41 -55 65 0 18 82 12 128 -9z m202 -41 c60 -9 90 -34 90 -75 0 -29 -6
-29 -61 -4 -24 11 -59 20 -76 20 -18 0 -33 4 -33 9 0 5 -3 23 -7 41 -6 30 -4
33 13 25 10 -4 44 -11 74 -16z m-760 -7 c0 -15 -26 -45 -50 -57 -33 -17 -120
-20 -120 -4 0 20 21 50 41 58 20 7 129 9 129 3z m937 -63 c2 -24 -1 -30 -13
-25 -9 3 -22 6 -30 6 -14 0 -20 31 -7 43 3 4 16 7 27 7 16 0 21 -7 23 -31z
m77 -11 c17 -24 13 -38 -13 -38 -33 0 -53 23 -46 53 6 22 10 25 26 17 10 -6
25 -20 33 -32z m2938 15 c-3 -16 -7 -22 -10 -15 -4 13 4 42 11 42 2 0 2 -12
-1 -27z m-3524 -107 c3 -27 -12 -56 -29 -56 -11 0 -12 73 -2 84 13 13 28 -1
31 -28z m812 -50 c6 -8 10 -24 8 -36 -3 -19 -4 -20 -25 -5 -25 18 -31 55 -9
55 7 0 19 -7 26 -14z m-1890 -100 c0 -35 -31 -73 -49 -61 -16 9 -13 30 10 69
24 42 39 39 39 -8z m2875 -111 c40 -39 29 -83 -26 -105 -26 -11 -32 -11 -40 1
-13 18 -5 95 11 114 17 21 27 19 55 -10z m-765 -10 c0 -8 -7 -15 -15 -15 -8 0
-15 7 -15 15 0 8 7 15 15 15 8 0 15 -7 15 -15z m130 -141 c14 -35 13 -36 -12
-32 -17 2 -24 11 -26 31 -4 36 25 37 38 1z m1488 -1 c2 -12 -4 -36 -14 -54
-16 -31 -17 -32 -30 -14 -15 20 -18 53 -8 80 9 24 48 15 52 -12z m-1054 -282
c24 -26 34 -101 15 -101 -38 0 -92 80 -74 110 10 16 40 12 59 -9z m216 -157
c0 -26 -17 -33 -26 -9 -8 20 3 48 16 40 5 -3 10 -17 10 -31z m208 14 c-4 -30
-43 -36 -57 -10 -13 24 -5 32 31 32 25 0 29 -4 26 -22z m-3173 -95 c9 -35 3
-37 -44 -13 -43 21 -49 37 -29 70 12 19 13 19 39 -6 15 -15 30 -37 34 -51z
m3533 19 c3 -17 -2 -22 -17 -22 -16 0 -21 6 -21 24 0 31 34 29 38 -2z m512
-42 c0 -11 -7 -20 -16 -20 -8 0 -43 -13 -77 -30 -40 -19 -70 -27 -85 -24 -18
5 -20 9 -10 21 15 18 60 42 112 58 60 19 76 18 76 -5z m-528 -150 c-3 -92 -2
-100 16 -100 15 0 19 -8 20 -36 1 -20 4 -45 7 -54 4 -12 -3 -25 -21 -39 -33
-26 -55 -27 -83 -3 l-22 17 16 147 c8 81 20 160 26 175 9 25 11 26 27 9 14
-14 17 -33 14 -116z m140 -25 c37 -17 86 -27 163 -35 60 -6 128 -19 150 -29
42 -19 109 -86 100 -101 -3 -4 -37 -14 -76 -20 -225 -38 -448 81 -449 239 l0
33 29 -31 c16 -17 53 -42 83 -56z m-3977 19 c19 -8 45 -55 45 -84 0 -17 -5
-21 -27 -18 -29 3 -58 38 -67 81 -5 22 -3 27 13 27 11 0 27 -3 36 -6z m4555
-79 c0 -28 -32 -57 -54 -49 -18 7 -21 26 -7 52 5 9 12 25 15 36 6 18 7 18 26
1 11 -10 20 -28 20 -40z m-4930 -49 c0 -30 -28 -42 -49 -21 -14 13 -13 16 4
30 29 21 45 18 45 -9z m3010 -125 c13 -26 13 -71 -1 -71 -26 0 -49 22 -49 49
0 44 30 58 50 22z m-2351 -39 c27 -26 49 -102 36 -123 -10 -15 -41 -10 -57 9
-20 22 -38 77 -38 113 0 38 23 38 59 1z m-1050 -15 c13 -17 0 -99 -20 -123
-12 -15 -15 -14 -31 6 -23 29 -33 83 -19 109 13 24 53 28 70 8z m4062 -74 c11
-31 4 -93 -11 -93 -6 0 -10 27 -10 60 0 66 5 74 21 33z m-580 -144 c16 -30 3
-91 -19 -87 -22 4 -37 48 -28 82 8 31 31 34 47 5z m-2949 -11 c7 -18 -2 -39
-13 -32 -12 7 -12 44 0 44 5 0 11 -6 13 -12z m1836 -3 c20 -9 47 -26 59 -37
l23 -21 0 26 c0 28 14 34 39 18 12 -8 12 -16 -1 -55 -15 -44 -14 -47 3 -57 23
-12 24 -32 5 -48 -18 -15 -58 4 -100 48 -30 32 -88 57 -106 46 -5 -3 -10 -18
-10 -33 0 -15 -5 -34 -10 -42 -7 -11 -13 -5 -29 30 -23 51 -26 73 -10 101 20
39 77 48 137 24z m1031 -127 c1 -23 -17 -32 -34 -18 -16 13 -20 77 -8 120 6
22 9 19 24 -30 10 -30 18 -63 18 -72z m-2107 47 c1 -36 2 -77 2 -92 1 -42 -27
-40 -79 4 -40 34 -44 43 -45 82 0 40 2 43 23 37 14 -3 34 2 52 14 17 11 33 20
38 20 4 0 8 -29 9 -65z m3278 52 c0 -14 -20 -37 -32 -37 -10 0 -11 34 -1 43
11 12 33 8 33 -6z m-490 -81 c0 -32 -11 -66 -21 -66 -5 0 -9 28 -9 63 1 57 2
60 15 43 8 -11 15 -29 15 -40z m388 42 c7 -7 12 -32 12 -56 0 -36 -3 -43 -17
-40 -28 5 -47 48 -34 81 12 30 21 33 39 15z m-68 -58 c0 -5 -7 -10 -15 -10 -8
0 -15 5 -15 10 0 6 7 10 15 10 8 0 15 -4 15 -10z m-1732 -67 c20 -5 23 -10 18
-36 -9 -45 -23 -59 -47 -44 -19 12 -24 41 -13 71 7 18 9 18 42 9z m-754 -19
c8 -20 -11 -54 -30 -54 -23 0 -28 29 -9 50 22 24 31 25 39 4z m621 -44 c71
-39 126 -140 76 -140 -10 0 -24 -7 -31 -15 -21 -25 -37 -17 -43 21 -7 42 -32
74 -57 74 -12 0 -21 13 -29 44 -6 25 -11 48 -11 51 0 10 41 -5 95 -35z m-2587
-34 c-2 -13 -12 -22 -25 -24 -18 -3 -23 1 -23 20 0 13 5 29 12 36 16 16 40 -5
36 -32z m1342 -22 c0 -54 0 -55 -27 -52 -26 3 -28 6 -25 43 4 56 8 65 32 65
18 0 20 -6 20 -56z m2777 -103 c-7 -109 -54 -256 -88 -277 -16 -10 -5 62 32
206 16 63 29 124 29 136 0 13 3 30 6 39 7 16 8 16 17 0 6 -11 7 -54 4 -104z
m-3967 73 c0 -32 -56 -89 -94 -96 -34 -7 -35 20 -3 50 18 17 86 68 95 71 1 1
2 -11 2 -25z m300 -80 c0 -13 -9 -33 -21 -45 -23 -23 -80 -50 -91 -43 -15 9
15 53 48 70 19 10 37 27 40 36 7 25 24 12 24 -18z m2480 -3 c38 -27 68 -78 76
-127 3 -25 4 -47 1 -50 -7 -7 -122 62 -163 99 -31 26 -35 35 -30 61 4 16 12
34 19 38 17 11 67 0 97 -21z m1538 -9 c2 -14 -2 -22 -11 -22 -17 0 -26 19 -19
38 7 19 27 9 30 -16z m-1995 -12 c-3 -12 -8 -19 -11 -16 -5 6 5 36 12 36 2 0
2 -9 -1 -20z m-303 -21 c0 -24 -23 -21 -28 4 -2 10 3 17 12 17 10 0 16 -9 16
-21z m-2395 -46 c22 -22 15 -68 -20 -128 -37 -63 -55 -48 -55 48 0 55 4 73 18
83 23 18 37 17 57 -3z m4146 6 c16 -8 18 -13 8 -25 -23 -28 -68 -11 -55 21 6
18 20 19 47 4z m-1636 -25 c14 -15 25 -30 25 -33 0 -4 16 -5 35 -3 25 3 47 -3
80 -22 46 -27 65 -27 65 0 0 9 6 14 13 12 16 -6 16 -74 0 -71 -7 2 -17 -15
-23 -37 -12 -45 -26 -55 -92 -64 -27 -4 -48 -8 -48 -9 0 -1 7 -38 15 -82 17
-95 19 -215 4 -267 -12 -45 -45 -84 -78 -93 -21 -6 -23 -5 -16 11 50 120 50
207 0 432 -19 90 -38 184 -42 208 -5 40 -4 44 16 44 12 0 33 -12 46 -26z m572
-111 c4 -91 -7 -133 -27 -103 -11 17 -13 152 -4 188 13 45 28 3 31 -85z
m-1158 47 c4 0 34 -20 65 -45 32 -25 67 -45 77 -45 39 0 16 -61 -33 -86 -84
-44 -174 45 -153 153 4 26 10 33 21 29 9 -3 19 -6 23 -6z m461 -42 c-1 -13 -6
-36 -13 -52 -10 -23 -15 -26 -24 -15 -6 8 -14 25 -18 39 -5 20 -1 27 17 36 34
17 38 16 38 -8z m559 8 c17 -20 10 -81 -9 -81 -11 0 -16 13 -18 48 -3 48 6 59
27 33z m-1488 -12 c31 -15 59 -66 59 -104 0 -27 -43 -43 -95 -34 -43 7 -155
59 -155 72 0 18 35 55 64 68 42 18 90 17 127 -2z m3274 -27 c0 -39 -19 -38
-23 2 -3 24 0 32 10 29 7 -3 13 -17 13 -31z m-56 -10 c15 -19 -19 -50 -50 -45
-30 4 -49 35 -29 48 22 14 66 12 79 -3z m-148 -17 c24 -13 24 -32 1 -53 -43
-39 -126 -28 -120 16 5 38 76 60 119 37z m-4535 -75 c7 -16 -42 -194 -56 -209
-6 -6 -16 -4 -25 4 -14 12 -18 11 -25 0 -12 -19 -2 63 16 127 18 67 76 117 90
78z m4268 -24 c7 -10 -33 -64 -67 -91 -24 -19 -146 -70 -167 -70 -5 0 -5 11 1
28 14 40 89 111 135 127 45 16 90 19 98 6z m-814 -36 c0 -34 -25 -82 -49 -95
-11 -5 -58 -10 -105 -10 -78 0 -87 -2 -101 -23 -8 -13 -17 -46 -21 -73 -3 -27
-7 -59 -10 -71 -5 -24 -30 -53 -46 -53 -15 0 -2 99 21 160 l19 50 -23 0 c-19
0 -25 8 -35 51 -16 64 -7 74 51 59 36 -9 59 -8 129 9 47 10 104 20 128 20 39
1 42 -1 42 -24z m-2937 -85 c32 -7 65 -9 73 -6 20 8 18 -38 -2 -55 -10 -8 -41
-14 -78 -14 l-61 0 -3 -32 c-4 -39 -25 -48 -78 -31 -33 11 -39 18 -42 43 -4
38 34 97 68 106 26 7 30 6 123 -11z m2517 7 c0 -14 -20 -37 -32 -37 -10 0 -11
34 -1 43 11 12 33 8 33 -6z m-141 -63 c-24 -25 -66 -59 -94 -75 -49 -28 -115
-39 -115 -18 0 24 56 80 104 104 48 23 135 46 145 38 3 -2 -15 -24 -40 -49z
m966 15 c4 -17 1 -30 -10 -39 -27 -22 -39 1 -24 44 14 38 24 37 34 -5z m-1975
-35 c0 -15 -6 -24 -15 -24 -11 0 -15 11 -15 36 0 31 2 35 15 24 8 -7 15 -23
15 -36z m-786 15 c40 -31 34 -55 -15 -62 -53 -7 -86 6 -101 39 -10 21 -9 27 3
35 25 16 85 10 113 -12z m-1519 -3 c209 -37 421 -108 643 -216 89 -44 162 -84
162 -89 0 -4 -19 -11 -43 -14 -24 -3 -95 -27 -159 -51 -147 -58 -162 -60 -166
-23 -4 36 21 75 53 83 30 7 31 15 8 37 -39 34 -147 78 -315 126 -211 60 -298
99 -298 136 0 30 5 30 115 11z m2393 2 c7 -7 12 -29 12 -49 0 -29 -7 -43 -31
-63 -39 -33 -55 -33 -63 0 -7 26 8 88 27 112 12 15 39 16 55 0z m2033 -5 c-17
-32 -109 -103 -133 -103 -9 0 9 59 24 78 16 19 66 41 96 42 19 0 21 -3 13 -17z
m-904 -25 c-3 -8 -6 -5 -6 6 -1 11 2 17 5 13 3 -3 4 -12 1 -19z m489 -37 c-6
-40 -10 -45 -31 -38 -10 4 -15 19 -15 45 0 47 6 54 32 39 15 -9 18 -19 14 -46z
m140 -26 c10 -39 -4 -73 -35 -90 -26 -13 -30 -13 -35 1 -12 31 -6 103 10 118
20 21 51 5 60 -29z m-1256 -109 c0 -27 -24 -56 -46 -56 -19 0 -18 39 3 62 23
25 43 23 43 -6z m-2942 -68 c3 -29 -27 -54 -54 -44 -21 8 -18 63 4 69 33 9 47
2 50 -25z m1960 -82 c2 -10 -1 -23 -8 -30 -14 -14 -41 19 -33 40 8 20 37 13
41 -10z m-1865 5 c68 -16 119 -82 57 -73 -44 6 -72 -17 -114 -98 -57 -107 -86
-107 -123 1 -12 35 -31 71 -43 81 -20 16 -20 16 10 41 54 46 140 65 213 48z
m3937 -37 c0 -40 -9 -42 -39 -10 -27 28 -22 44 14 44 22 0 25 -5 25 -34z
m-2640 -20 c68 -37 145 -121 260 -284 114 -161 188 -238 263 -274 55 -26 56
-26 45 -56 -10 -29 -37 -49 -85 -64 -19 -6 -23 -2 -29 31 -16 89 -63 150 -179
233 -89 63 -150 125 -217 220 -107 150 -113 154 -201 123 -42 -15 -49 -15 -62
-2 -9 9 -18 32 -22 52 -5 34 -4 36 28 46 56 17 141 6 199 -25z m2858 24 c7 -7
12 -36 12 -65 0 -49 -2 -53 -23 -53 -55 0 -77 53 -43 105 18 27 35 32 54 13z
m-2615 -29 c34 -9 37 -13 37 -45 0 -44 -23 -54 -55 -24 -13 12 -28 19 -33 16
-13 -8 -22 17 -15 43 6 24 13 25 66 10z m283 -54 c24 -36 15 -128 -15 -158
-28 -29 -47 -17 -85 53 -33 60 -30 71 24 108 42 28 56 28 76 -3z m1405 -45
c13 -8 19 -21 19 -45 0 -33 -1 -34 -25 -23 -26 12 -42 48 -30 67 8 14 11 14
36 1z m249 -30 c29 -29 35 -66 16 -95 -9 -14 -21 -25 -26 -25 -16 0 -40 57
-40 93 0 52 16 61 50 27z m118 -89 c3 -27 0 -32 -15 -29 -19 3 -28 30 -19 54
10 26 31 10 34 -25z m-415 -120 c6 -24 -7 -46 -23 -36 -18 11 -29 49 -18 63
13 15 33 1 41 -27z m251 13 c11 -29 6 -72 -10 -89 -26 -26 -39 -12 -42 48 -3
55 -2 57 21 57 14 0 28 -7 31 -16z m-106 -72 c3 -40 2 -43 -20 -40 -27 4 -54
48 -45 72 5 12 16 16 34 14 25 -3 28 -7 31 -46z m367 18 c9 -15 -4 -47 -22
-54 -24 -9 -27 0 -13 34 13 31 24 37 35 20z m-1651 -26 c21 -8 21 -62 0 -92
-15 -22 -48 -29 -72 -14 -19 13 -3 69 26 92 28 23 25 22 46 14z m1607 -71 c38
-33 59 -79 59 -133 l0 -40 90 0 c143 0 180 -24 180 -116 l0 -47 -42 7 c-24 4
-72 23 -108 42 -36 20 -66 31 -68 25 -12 -36 -50 -76 -72 -76 -32 0 -38 32
-16 86 22 55 20 74 -12 110 -38 42 -94 48 -188 20 -74 -22 -139 -27 -162 -12
-28 17 84 116 166 146 20 7 60 14 89 14 42 1 57 -4 84 -26z m-4433 -20 c2 -14
-4 -26 -18 -33 -27 -14 -50 -6 -50 18 0 43 62 57 68 15z m1992 -145 c0 -47
-22 -51 -40 -8 -10 25 -10 36 -1 58 12 26 13 26 27 7 8 -10 14 -36 14 -57z
m1648 -17 c3 -46 -18 -91 -43 -91 -33 0 -30 110 3 129 27 16 37 7 40 -38z
m-2555 -83 c53 -35 130 -85 171 -111 89 -57 226 -197 193 -197 -10 0 -240 128
-287 160 -80 54 -180 168 -180 205 0 9 3 7 103 -57z m-253 27 c0 -8 -7 -15
-15 -15 -16 0 -20 12 -8 23 11 12 23 8 23 -8z m1620 -70 c15 -18 8 -40 -19
-55 -18 -9 -23 -7 -33 14 -19 42 23 76 52 41z m-2662 -22 c-4 -22 -48 -31 -48
-10 0 19 10 27 32 27 13 0 18 -6 16 -17z m515 -98 l6 -61 -31 -12 c-23 -8 -35
-9 -45 -1 -10 9 -13 3 -13 -30 0 -22 -4 -41 -8 -41 -23 0 -50 117 -38 164 5
22 11 25 31 20 21 -5 28 0 46 31 l22 37 12 -23 c7 -13 15 -51 18 -84z m197 4
c0 -33 -3 -40 -17 -37 -13 2 -19 14 -21 41 -3 32 0 37 17 37 18 0 21 -6 21
-41z m3964 19 c20 -28 21 -110 1 -147 -8 -16 -26 -37 -40 -47 -22 -16 -34 -51
-84 -234 -85 -310 -84 -309 -91 -110 l-6 165 27 26 c36 35 63 90 109 223 50
145 51 146 61 146 4 0 15 -10 23 -22z m-4800 -4 c9 -8 16 -24 16 -35 0 -16 -6
-20 -27 -17 -31 3 -42 30 -23 53 15 18 15 18 34 -1z m384 -36 c16 -16 15 -55
-2 -61 -22 -9 -56 4 -56 21 0 16 28 52 40 52 3 0 11 -5 18 -12z m404 -35 c19
-17 24 -58 9 -67 -27 -17 -61 33 -47 69 7 19 15 19 38 -2z m824 -38 c8 -19
-22 -65 -41 -65 -19 0 -28 35 -15 60 13 23 48 27 56 5z m2842 -27 c18 -18 14
-46 -8 -58 -36 -19 -52 9 -30 51 12 22 21 24 38 7z m-3450 -46 c5 -31 -36 -76
-54 -61 -16 13 -28 65 -19 79 4 6 21 10 38 8 25 -2 33 -8 35 -26z m47 -12 c0
-36 -29 -33 -33 3 -3 23 0 28 15 25 12 -2 18 -12 18 -28z m3275 -50 c0 -35
-14 -39 -30 -10 -12 23 -6 40 16 40 9 0 14 -11 14 -30z m-1328 -16 c14 -4 15
-10 6 -34 -21 -63 -96 -98 -149 -70 -22 12 -24 28 -7 66 21 46 74 59 150 38z
m-952 -14 c29 -29 27 -59 -5 -53 -28 6 -39 18 -49 51 -6 18 -3 22 13 22 12 0
30 -9 41 -20z m1898 -47 c-2 -22 -8 -28 -28 -28 -20 0 -26 6 -28 28 -3 24 0
27 28 27 28 0 31 -3 28 -27z m-1638 -29 c0 -51 -43 -102 -62 -72 -25 40 17
133 49 107 7 -6 13 -22 13 -35z m-2009 6 c6 0 9 -15 7 -32 -2 -28 -8 -34 -30
-36 -24 -3 -28 0 -28 22 0 37 11 58 27 52 8 -3 19 -6 24 -6z m-119 -77 c22
-20 23 -61 3 -109 -26 -63 -70 -14 -59 66 9 66 20 75 56 43z m-298 -16 c36
-26 -3 -104 -60 -121 -25 -8 -41 9 -50 50 -12 61 60 107 110 71z m692 -23 c-5
-13 -10 -14 -18 -6 -6 6 -8 18 -4 28 5 13 10 14 18 6 6 -6 8 -18 4 -28z m1434
-96 c0 -48 -25 -143 -44 -173 -26 -39 -46 -42 -73 -11 -46 54 -21 141 56 193
47 32 61 30 61 -9z m2157 -9 c25 -48 9 -131 -33 -173 -32 -31 -64 -33 -89 -6
-16 18 -16 22 4 89 15 50 30 77 52 96 36 30 49 28 66 -6z m-1423 -35 c7 -19
-1 -34 -19 -34 -18 0 -28 17 -21 35 7 20 32 19 40 -1z m1576 -109 c60 -31 108
-129 92 -188 l-7 -28 -41 30 c-71 51 -101 107 -89 167 7 39 6 39 45 19z
m-3100 -96 c0 -29 -18 -59 -35 -59 -16 0 -20 35 -9 64 9 24 44 20 44 -5z
m7010 -43 c41 -13 87 -27 102 -30 42 -10 47 -47 13 -113 -21 -41 -31 -53 -44
-48 -9 4 -46 18 -83 32 -49 18 -79 37 -108 69 -50 55 -52 76 -5 102 28 16 41
15 125 -12z m923 3 c38 -10 39 -11 32 -46 -3 -19 -12 -44 -18 -55 -16 -25 -53
-34 -74 -17 -22 19 -43 72 -43 110 0 30 1 31 32 25 18 -3 49 -11 71 -17z
m-5679 5 c16 -6 23 -44 9 -44 -17 1 -45 29 -38 39 7 13 8 13 29 5z m1030 -4
c21 -8 26 -16 26 -43 0 -41 -15 -57 -56 -57 -29 0 -32 3 -37 42 -8 62 11 79
67 58z m471 -80 c11 -18 -23 -80 -44 -80 -27 0 -36 35 -17 65 17 25 50 33 61
15z m-4621 -16 c19 -49 -3 -154 -40 -191 -56 -56 -98 7 -73 109 17 72 95 128
113 82z m3741 -22 c7 -19 -3 -32 -26 -32 -15 0 -19 7 -19 35 0 33 1 34 20 23
11 -7 22 -19 25 -26z m-4023 -9 c29 -26 23 -53 -12 -53 -27 0 -30 -3 -30 -33
0 -18 -12 -57 -27 -87 l-26 -53 -19 23 c-39 48 -14 163 44 204 29 20 47 20 70
-1z m4996 -37 c-2 -13 -12 -22 -25 -24 -18 -3 -23 1 -23 20 0 13 5 29 12 36
16 16 40 -5 36 -32z m2129 3 c12 -30 12 -31 66 -24 l53 7 12 -40 c7 -22 12
-51 12 -66 0 -22 -4 -26 -18 -22 -32 11 -129 -23 -247 -84 -101 -53 -122 -60
-171 -60 -62 0 -108 22 -144 68 l-21 26 53 26 c40 19 55 32 63 55 5 17 10 31
11 33 4 7 64 -29 64 -38 0 -20 21 -8 126 70 58 44 112 80 118 80 6 0 17 -14
23 -31z m-1977 -54 c0 -30 -4 -55 -9 -55 -18 0 -41 45 -41 81 0 43 7 51 31 38
15 -8 19 -21 19 -64z m-5300 45 c14 -26 3 -45 -16 -29 -16 13 -19 49 -4 49 5
0 14 -9 20 -20z m2750 -21 c0 -14 -5 -19 -17 -17 -26 5 -29 38 -4 38 15 0 21
-6 21 -21z m2470 -13 c0 -44 -17 -55 -30 -21 -15 39 -12 55 10 55 16 0 20 -7
20 -34z m-3208 -46 c-3 -21 -10 -30 -23 -30 -27 0 -30 13 -11 53 14 29 19 33
28 22 6 -8 9 -28 6 -45z m2908 35 c0 -8 -7 -15 -15 -15 -16 0 -20 12 -8 23 11
12 23 8 23 -8z m-3559 -57 c14 -52 6 -68 -31 -68 -30 0 -30 1 -30 53 0 88 38
98 61 15z m940 49 c-1 -12 -15 -9 -19 4 -3 6 1 10 8 8 6 -3 11 -8 11 -12z
m739 -30 c0 -29 -15 -51 -29 -43 -14 9 -14 49 1 64 15 15 28 6 28 -21z m-862
-3 c4 -25 -31 -59 -53 -51 -18 8 -20 48 -3 65 19 19 53 10 56 -14z m-2234 -6
c-14 -48 -20 -52 -38 -27 -24 35 -20 49 15 49 27 0 30 -3 23 -22z m4700 6 c10
-25 7 -72 -4 -79 -27 -17 -57 64 -33 88 11 12 31 7 37 -9z m214 -16 c2 -18 -6
-33 -28 -52 -39 -33 -48 -33 -61 1 -15 39 -8 54 31 68 46 16 54 14 58 -17z
m-5372 -30 c23 -11 23 -12 7 -31 -31 -34 -80 -47 -196 -54 -67 -3 -131 -13
-158 -23 -37 -13 -49 -14 -62 -5 -30 21 -19 33 61 63 179 70 275 83 348 50z
m2894 -7 c0 -40 -14 -46 -34 -16 -19 29 -14 45 15 45 14 0 19 -7 19 -29z
m-440 -13 c26 -42 22 -75 -12 -96 -23 -13 -29 -14 -43 -2 -29 24 -7 130 26
130 5 0 18 -15 29 -32z m503 -24 c-3 -8 -9 -14 -13 -14 -14 0 -21 17 -14 34 5
12 10 14 20 6 7 -7 10 -18 7 -26z m7098 -20 c20 -21 24 -36 24 -87 0 -62 0
-62 -30 -65 -43 -4 -82 39 -94 103 -11 59 -2 75 43 75 22 0 40 -8 57 -26z
m-4323 -7 c2 -10 -3 -17 -12 -17 -18 0 -29 16 -21 31 9 14 29 6 33 -14z
m-2209 -52 c12 -46 6 -141 -10 -150 -12 -8 -39 24 -39 46 0 41 23 158 30 154
4 -3 13 -25 19 -50z m1190 -13 c31 -49 91 -214 91 -251 0 -19 -3 -20 -21 -11
-37 20 -76 97 -103 205 -14 57 -26 110 -26 116 0 19 25 -7 59 -59z m2589 14
c3 -20 0 -27 -10 -24 -7 3 -14 17 -16 32 -3 20 0 27 10 24 7 -3 14 -17 16 -32z
m-5347 -59 c10 -36 1 -59 -19 -55 -18 4 -36 52 -28 74 9 24 39 12 47 -19z
m-1309 -76 c-3 -31 -30 -61 -54 -61 -14 0 -18 8 -18 33 0 40 17 59 50 55 20
-2 24 -8 22 -27z m6887 2 c-6 -15 -16 -31 -22 -35 -7 -4 -12 -26 -12 -49 l0
-41 -100 -54 c-104 -56 -174 -82 -236 -86 l-37 -2 -30 -110 c-17 -61 -32 -122
-34 -136 -3 -21 -10 -26 -48 -32 -105 -16 -220 16 -253 71 -17 30 -22 109 -8
144 6 17 8 16 19 -7 17 -38 56 -43 129 -18 70 25 113 28 131 10 10 -10 15 -10
22 2 25 40 5 67 -55 72 -29 2 -41 8 -43 21 -5 25 48 81 62 67 15 -15 72 -12
85 4 8 10 7 22 -4 49 -26 62 -20 92 20 111 28 14 63 16 187 15 122 -2 160 1
188 13 48 22 51 22 39 -9z m-5472 -20 c-3 -10 -5 -4 -5 12 0 17 2 24 5 18 2
-7 2 -21 0 -30z m5693 10 c-1 -31 -15 -112 -21 -117 -11 -10 -115 16 -126 31
-18 23 -17 73 1 73 8 0 33 9 57 20 64 29 89 27 89 -7z m-6240 -21 c0 -21 -18
-42 -36 -42 -21 0 -25 32 -7 46 25 19 43 17 43 -4z m2481 5 c-1 -12 -15 -9
-19 4 -3 6 1 10 8 8 6 -3 11 -8 11 -12z m976 -13 c-9 -9 -28 6 -21 18 4 6 10
6 17 -1 6 -6 8 -13 4 -17z m2009 -11 c-10 -10 -19 5 -10 18 6 11 8 11 12 0 2
-7 1 -15 -2 -18z m-4916 -43 c0 -20 -5 -30 -15 -30 -16 0 -19 17 -9 44 10 26
24 18 24 -14z m-645 -5 c44 -43 28 -95 -28 -95 -50 0 -69 17 -62 53 6 31 37
67 57 67 5 0 20 -11 33 -25z m145 -30 c0 -16 -6 -25 -15 -25 -8 0 -15 4 -15 9
0 5 -3 16 -6 25 -4 12 0 16 15 16 16 0 21 -6 21 -25z m1854 -2 c19 -15 22 -22
13 -40 -12 -28 -33 -30 -46 -5 -9 17 -5 62 6 62 2 0 15 -8 27 -17z m346 -32
c0 -58 -18 -84 -87 -127 -46 -28 -49 -29 -65 -12 -27 27 -22 44 20 75 46 35
52 42 52 71 0 15 6 22 19 22 11 0 23 5 26 10 3 6 13 10 21 10 10 0 14 -13 14
-49z m-3456 -7 c7 -19 -10 -54 -27 -54 -16 0 -37 20 -37 35 0 5 10 15 23 21
31 16 34 16 41 -2z m8964 -86 c16 -20 3 -70 -17 -66 -17 3 -27 39 -17 64 7 17
20 18 34 2z m-4138 -74 c74 -44 129 -93 150 -134 11 -22 20 -44 20 -50 0 -21
-38 -9 -81 24 -54 43 -82 51 -120 32 -29 -14 -29 -14 -29 14 0 15 7 33 15 40
21 18 19 29 -9 36 -24 6 -36 29 -36 73 0 22 1 23 23 8 12 -9 42 -28 67 -43z
m-2267 -6 c15 -23 -9 -53 -29 -37 -20 17 -18 61 2 57 9 -2 22 -10 27 -20z
m6117 -129 c0 -42 -3 -51 -22 -58 -13 -5 -32 -5 -43 -1 -26 10 -23 55 6 113
l21 41 19 -23 c13 -16 19 -39 19 -72z m-2454 -128 c42 -162 25 -262 -27 -160
-16 33 -22 71 -29 188 -5 80 -9 153 -9 161 1 23 38 -85 65 -189z m-6198 136
c2 -10 -4 -20 -13 -23 -21 -8 -25 -3 -18 24 6 25 26 24 31 -1z m447 13 c9 -15
-6 -60 -20 -60 -19 0 -24 11 -18 43 5 26 26 36 38 17z m1583 -45 c5 -37 -9
-48 -36 -29 -21 15 -31 62 -15 77 12 13 48 -20 51 -48z m6448 9 c16 6 20 1 28
-40 6 -25 2 -36 -22 -60 -18 -19 -32 -50 -40 -86 l-13 -56 -66 -4 c-61 -3 -66
-1 -74 20 -10 27 -12 125 -3 171 6 29 10 32 38 29 24 -2 31 1 34 17 2 11 11
26 20 32 13 11 22 9 50 -8 19 -11 41 -18 48 -15z m-8886 -9 c0 -19 -4 -22 -21
-18 -25 7 -37 32 -19 43 20 13 40 0 40 -25z m4974 -59 c-14 -36 -30 -69 -35
-72 -21 -12 -6 -24 30 -24 31 0 44 -6 60 -26 57 -73 -22 -184 -131 -184 -25 0
-53 3 -62 6 -24 9 -19 56 9 98 23 33 23 36 6 36 -11 0 -40 -9 -66 -20 -62 -27
-91 -25 -122 6 -25 26 -27 26 -40 8 -36 -50 -55 -65 -76 -62 -14 2 -22 10 -22
22 0 21 16 32 58 41 28 6 39 39 15 47 -6 2 17 20 53 40 100 56 338 161 347
153 2 -1 -9 -32 -24 -69z m786 23 c0 -32 -11 -37 -30 -14 -7 9 -10 25 -6 41 6
21 9 24 21 14 8 -7 15 -25 15 -41z m1480 15 c0 -45 -24 -42 -28 4 -2 24 1 32
12 32 12 0 16 -10 16 -36z m500 -99 l0 -65 -43 0 c-23 0 -105 -16 -181 -35
-176 -44 -253 -46 -338 -8 -32 14 -57 31 -55 36 2 6 15 20 30 31 25 18 40 20
163 18 151 -3 206 12 239 62 16 25 22 26 101 26 l84 0 0 -65z m-5132 13 c15
-15 15 -40 0 -89 -13 -46 -29 -49 -57 -13 -27 35 -26 59 4 89 27 28 36 30 53
13z m-2226 -83 c-45 -52 -174 -166 -180 -161 -15 16 20 70 96 146 79 78 88 85
103 71 15 -15 13 -19 -19 -56z m138 60 c0 -9 -7 -18 -16 -22 -18 -7 -39 11
-30 26 11 17 46 13 46 -4z m3618 -16 c7 -13 11 -43 10 -67 -3 -39 -1 -42 17
-36 11 4 72 9 136 11 l115 5 12 -27 c23 -49 16 -62 -33 -67 -28 -4 -92 -29
-168 -68 -108 -55 -127 -61 -166 -57 -32 4 -52 13 -75 37 l-31 31 44 40 c50
45 64 48 78 17 10 -22 10 -22 17 8 4 17 2 43 -4 58 -21 57 -6 153 23 143 7 -2
18 -14 25 -28z m1102 -8 c0 -17 -12 -41 -21 -41 -5 0 -9 11 -9 25 0 16 6 25
15 25 8 0 15 -4 15 -9z m-5825 -62 c9 -14 -24 -49 -45 -49 -17 0 -34 36 -24
52 7 12 62 10 69 -3z m4105 -13 c0 -8 -12 -24 -27 -36 -25 -19 -28 -20 -31 -5
-4 19 25 55 45 55 7 0 13 -6 13 -14z m3309 -62 c22 -29 28 -88 11 -114 -15
-22 -92 66 -83 95 14 51 42 58 72 19z m-2909 -50 c0 -25 -4 -34 -12 -30 -7 3
-21 9 -30 12 -20 7 -23 26 -8 55 17 32 50 7 50 -37z m-230 -38 c0 -46 23 -65
50 -41 11 10 20 23 20 30 0 7 8 19 18 28 16 15 20 13 55 -30 26 -32 37 -56 37
-79 0 -33 -1 -34 -85 -60 -169 -52 -289 -18 -349 99 -28 54 -30 85 -4 59 18
-18 104 -14 178 8 85 24 80 25 80 -14z m3638 9 c-2 -14 -7 -26 -13 -26 -5 0
-11 12 -13 26 -2 18 1 25 13 25 12 0 15 -7 13 -25z m-6678 -14 c0 -22 -53 -71
-76 -71 -57 0 -30 65 30 73 17 2 34 5 39 5 4 1 7 -2 7 -7z m-500 -65 c0 -25
-7 -38 -26 -50 -27 -19 -55 -18 -61 1 -5 15 66 95 78 87 5 -3 9 -20 9 -38z
m6559 -111 c38 -133 99 -279 156 -369 50 -80 52 -87 35 -96 -26 -14 -73 -13
-92 3 -11 8 -17 33 -20 77 -3 54 -13 85 -58 180 -53 111 -55 119 -58 210 -4
111 5 110 37 -5z m-4349 54 c0 -5 -7 -9 -15 -9 -15 0 -20 12 -9 23 8 8 24 -1
24 -14z m150 4 c65 -20 75 -36 40 -68 -20 -18 -23 -18 -95 6 -41 13 -75 28
-75 32 0 5 5 17 10 28 13 24 43 24 120 2z m564 -25 c35 -31 43 -77 19 -106
-18 -22 -19 -22 -69 -6 -64 21 -84 15 -84 -26 0 -45 -27 -51 -59 -13 -34 40
-53 33 -45 -16 5 -31 3 -37 -14 -38 -14 -1 -22 9 -31 39 -7 22 -23 51 -35 63
l-23 23 56 27 c73 37 188 74 228 75 19 0 42 -9 57 -22z m220 6 c11 -28 6 -35
-21 -32 -17 2 -28 9 -28 18 0 8 6 14 13 13 6 -2 12 2 12 7 0 16 17 12 24 -6z
m-96 -32 c4 -26 -13 -52 -35 -52 -20 0 -25 22 -13 54 12 33 43 32 48 -2z m615
-59 l-9 -38 -18 28 c-16 23 -17 32 -7 54 11 24 13 25 28 11 12 -13 14 -24 6
-55z m5165 20 c3 -42 -11 -83 -28 -83 -22 0 -40 34 -40 75 0 45 9 55 45 52 16
-2 21 -10 23 -44z m-3954 -65 c1 -39 -1 -43 -24 -43 -20 0 -26 6 -28 28 -4 35
25 84 41 68 5 -5 11 -30 11 -53z m-2327 27 c23 -14 43 -33 43 -41 0 -9 -16
-32 -35 -51 -31 -31 -40 -35 -70 -30 -31 5 -36 3 -41 -20 -4 -16 -2 -28 6 -33
18 -11 4 -40 -20 -40 -16 0 -20 7 -20 30 l0 30 -76 0 c-86 0 -107 8 -129 51
-18 35 -15 43 28 66 126 65 242 79 314 38z m-597 -85 c0 -47 -23 -55 -42 -16
-14 31 -4 56 22 56 17 0 20 -6 20 -40z m2420 0 c0 -15 -6 -33 -14 -39 -12 -10
-18 -7 -31 19 -19 36 -16 45 19 46 22 2 26 -2 26 -26z m-1475 -23 c17 -13 17
-15 0 -61 -15 -40 -17 -57 -9 -97 10 -48 10 -48 -19 -55 -45 -9 -52 7 -31 66
18 49 18 53 1 65 -11 7 -17 26 -17 48 0 29 4 36 23 40 12 2 25 5 28 6 3 0 13
-5 24 -12z m6750 -6 c-3 -6 -11 -11 -17 -11 -6 0 -6 6 2 15 14 17 26 13 15 -4z
m-7648 -48 c-27 -42 -54 -69 -63 -61 -3 3 -1 21 3 39 6 24 19 39 43 51 19 10
36 16 38 14 2 -2 -8 -21 -21 -43z m-323 5 c12 -19 10 -23 -22 -32 -15 -5 -24
-3 -28 8 -16 41 26 61 50 24z m1816 -8 c0 -5 -10 -16 -22 -25 -26 -17 -33 -8
-24 31 6 21 9 23 26 14 11 -6 20 -15 20 -20z m-2358 -30 c22 -17 25 -27 26
-84 1 -39 -3 -68 -10 -72 -17 -11 -52 40 -72 103 -15 46 -16 57 -4 64 20 13
33 11 60 -11z m1868 5 c7 -8 21 -15 32 -15 17 0 19 -6 16 -47 -2 -26 -9 -48
-15 -51 -22 -7 -73 53 -73 86 0 43 17 55 40 27z m4228 -1 c24 -5 31 -12 36
-38 3 -17 2 -44 -2 -61 -10 -36 -45 -44 -91 -20 -27 14 -31 21 -31 58 0 63 17
75 88 61z m-5436 -31 c15 -13 26 -63 14 -63 -12 0 -96 42 -96 48 0 31 53 41
82 15z m991 -10 c8 -14 -12 -53 -28 -53 -15 0 -22 40 -8 53 9 9 31 9 36 0z
m4297 -42 c0 -37 -19 -68 -33 -54 -4 3 -7 26 -7 50 0 36 3 43 20 43 17 0 20
-7 20 -39z m-1860 -49 c-14 -102 -47 -135 -90 -90 -27 29 -27 87 1 122 20 25
77 49 91 37 4 -3 3 -35 -2 -69z m1703 38 c8 -30 6 -37 -14 -53 -12 -10 -34
-17 -48 -15 -23 3 -26 7 -26 43 0 32 5 42 25 52 37 19 53 12 63 -27z m1763
-47 c-6 -34 -40 -92 -95 -162 -27 -35 -51 -22 -51 29 0 33 4 42 23 49 13 5 38
32 56 60 46 71 77 83 67 24z m-2232 -70 c-1 -58 -10 -78 -29 -63 -18 15 -19
50 -3 85 16 36 33 25 32 -22z m2720 15 c8 -13 16 -43 18 -68 2 -36 0 -45 -15
-48 -10 -2 -29 4 -42 12 -21 14 -25 25 -25 65 0 26 3 51 7 54 14 14 43 6 57
-15z m-2594 -23 c0 -28 -20 -75 -31 -75 -13 0 -21 38 -13 63 15 50 44 58 44
12z m-5040 5 c0 -5 -7 -10 -15 -10 -8 0 -15 5 -15 10 0 6 7 10 15 10 8 0 15
-4 15 -10z m-1439 -21 c8 -15 8 -24 0 -32 -15 -15 -46 16 -38 37 9 22 24 20
38 -5z m6140 -19 c25 -14 24 -33 -3 -63 -29 -31 -132 -46 -142 -20 -11 27 -6
44 19 68 26 27 89 34 126 15z m527 -75 c-3 -3 -9 2 -12 12 -6 14 -5 15 5 6 7
-7 10 -15 7 -18z m-6048 -6 c0 -5 -4 -9 -10 -9 -5 0 -10 7 -10 16 0 8 5 12 10
9 6 -3 10 -10 10 -16z m70 2 c13 -25 13 -27 -6 -45 -8 -9 -26 -16 -39 -16 -21
0 -23 3 -15 30 5 16 11 34 15 40 10 16 33 12 45 -9z m1481 -18 c-12 -20 -14
-14 -5 12 4 9 9 14 11 11 3 -2 0 -13 -6 -23z m-1683 0 c-4 -21 -68 -28 -68 -8
0 18 11 25 42 25 23 0 29 -4 26 -17z m8552 8 c0 -20 -13 -41 -21 -35 -15 9
-10 44 6 44 8 0 15 -4 15 -9z m-8850 -20 c0 -36 -11 -53 -26 -40 -17 14 -18
31 -2 47 17 17 28 15 28 -7z m5110 -73 c54 -10 240 -65 248 -72 2 -3 -10 -12
-27 -20 -41 -22 -130 -20 -196 3 -57 20 -165 87 -165 102 0 9 43 5 140 -13z
m-142 -66 c29 -28 52 -61 56 -79 l7 -31 29 16 c28 16 31 16 65 -2 31 -17 35
-24 35 -59 0 -23 -9 -54 -22 -75 -12 -19 -24 -51 -27 -70 l-6 -34 -36 35 c-19
19 -61 73 -93 121 -31 47 -66 91 -77 96 -14 8 -19 21 -19 55 0 90 18 95 88 27z
m-1660 -44 c-4 -29 -38 -38 -38 -10 0 22 8 32 27 32 9 0 13 -8 11 -22z m3350
-99 c18 -29 42 -78 53 -109 27 -71 71 -238 67 -251 -2 -7 -190 385 -217 455
-12 31 69 -49 97 -95z m-5769 44 c15 -53 14 -83 -4 -89 -37 -15 -61 58 -35
107 16 29 28 23 39 -18z m1806 26 c9 -14 9 -75 0 -89 -5 -8 -11 -8 -21 1 -19
16 -19 99 0 99 8 0 18 -5 21 -11z m93 -17 c2 -12 -1 -29 -6 -38 -9 -16 -11
-15 -20 3 -13 23 -4 65 12 60 6 -2 12 -13 14 -25z m282 5 c0 -23 -17 -47 -32
-47 -4 0 -8 16 -8 35 0 28 4 35 20 35 14 0 20 -7 20 -23z m2699 -12 c74 -15
130 -36 169 -61 23 -15 23 -16 6 -35 -35 -39 -152 -15 -245 52 -30 21 -40 59
-15 59 8 0 46 -7 85 -15z m2315 -84 c8 -52 -12 -109 -47 -135 -21 -15 -30 -17
-39 -8 -20 20 -11 107 18 168 27 57 27 57 44 36 10 -11 20 -39 24 -61z m-5576
-20 c3 -16 -1 -22 -10 -19 -7 3 -15 15 -16 27 -3 16 1 22 10 19 7 -3 15 -15
16 -27z m3865 3 c-4 -10 -9 -12 -15 -6 -12 12 -1 35 12 27 5 -3 6 -13 3 -21z
m-2198 -45 c10 -15 -4 -61 -15 -54 -13 8 -13 65 -1 65 6 0 13 -5 16 -11z
m1063 -121 c7 -7 12 -25 12 -40 0 -32 -22 -37 -54 -13 -16 12 -18 19 -8 40 13
27 31 32 50 13z m1650 -20 c-2 -13 -7 -23 -13 -23 -5 0 -11 10 -13 23 -2 15 2
22 13 22 11 0 15 -7 13 -22z m-4550 -90 c2 -26 -2 -56 -8 -67 -10 -20 -10 -20
-48 1 -20 12 -45 28 -54 36 -21 17 -24 42 -5 42 6 0 23 9 37 20 14 11 36 19
50 18 22 -3 25 -8 28 -50z m-628 -43 c0 -28 -19 -75 -31 -75 -4 0 -20 5 -34
12 -47 21 -20 88 37 88 23 0 28 -4 28 -25z m4238 -33 c2 -14 -2 -22 -12 -22
-19 0 -28 14 -20 35 9 21 28 14 32 -13z m72 -53 c0 -11 -4 -17 -10 -14 -5 3
-10 13 -10 21 0 8 5 14 10 14 6 0 10 -9 10 -21z m-490 -60 c0 -38 -1 -40 -27
-37 -48 5 -40 78 8 78 16 0 19 -8 19 -41z m1310 22 c5 -11 10 -32 10 -47 0
-25 -2 -27 -15 -14 -19 19 -32 80 -17 80 6 0 16 -9 22 -19z m-687 -64 c7 -27
6 -42 -2 -50 -27 -27 -64 35 -47 80 11 27 40 9 49 -30z m-4849 -39 c21 -29 20
-67 0 -75 -23 -9 -44 23 -44 64 0 39 21 44 44 11z m1935 -54 c23 -29 27 -59
10 -69 -17 -11 -70 16 -80 41 -20 55 33 75 70 28z m-207 -57 c40 -93 43 -107
20 -107 -22 0 -53 32 -76 77 -9 17 -26 39 -38 47 -18 13 -19 18 -8 31 7 8 27
15 44 15 28 -1 33 -6 58 -63z m3888 -93 c0 -26 -4 -43 -10 -39 -12 8 -24 71
-15 85 13 21 25 -2 25 -46z m-3249 -6 c19 -71 16 -115 -8 -140 l-22 -22 -9 23
c-7 20 -9 21 -21 7 -16 -19 -54 -21 -69 -3 -18 22 -2 53 34 67 31 12 34 17 29
41 -8 35 10 69 35 69 14 0 22 -11 31 -42z m1673 16 c10 -27 7 -69 -8 -89 -12
-16 -18 -17 -39 -8 -25 12 -27 11 -39 -33 -18 -62 -33 -52 -33 22 0 48 5 67
20 84 35 39 88 52 99 24z m-1850 -20 c20 -8 21 -38 1 -54 -30 -25 -79 16 -54
46 12 15 28 17 53 8z m-1875 -68 c17 -67 15 -73 -25 -79 -22 -4 -56 -23 -86
-48 -56 -47 -73 -41 -62 21 11 64 40 103 99 134 49 26 61 21 74 -28z m6391 35
c0 -27 -14 -70 -21 -65 -16 9 -11 74 6 74 8 0 15 -4 15 -9z m-6113 -33 c-3 -7
-5 -2 -5 12 0 14 2 19 5 13 2 -7 2 -19 0 -25z m5366 -24 c8 -8 -14 -55 -23
-49 -9 6 0 55 9 55 4 0 10 -3 14 -6z m-273 -65 c39 -46 44 -49 53 -33 5 11 11
21 13 23 2 2 21 -8 43 -23 51 -36 45 -57 -15 -54 -29 1 -44 6 -44 15 0 7 -9
13 -21 13 -11 0 -29 5 -40 10 -32 17 -65 100 -41 100 5 0 28 -23 52 -51z
m-3184 -88 c17 -32 19 -41 8 -45 -21 -8 -17 -32 8 -48 27 -18 19 -58 -20 -96
l-27 -27 -6 105 c-3 58 -9 115 -14 128 -14 40 27 27 51 -17z m-1925 -24 c-1
-12 -15 -9 -19 4 -3 6 1 10 8 8 6 -3 11 -8 11 -12z m-14 -69 c-3 -7 -5 -2 -5
12 0 14 2 19 5 13 2 -7 2 -19 0 -25z m2823 -48 c0 -36 -12 -50 -41 -50 -12 0
-11 67 2 91 16 30 39 6 39 -41z m185 47 c22 -17 14 -75 -15 -102 -18 -16 -19
-15 -31 24 -9 31 -9 47 -1 66 13 29 21 30 47 12z m446 -3 c24 -8 59 -13 77
-10 39 6 40 -3 6 -43 -43 -52 -141 -65 -185 -25 -20 18 -16 38 14 72 24 26 31
27 88 6z m-223 -38 c6 -66 -57 -106 -78 -50 -14 36 -13 42 15 70 36 36 59 28
63 -20z m-3261 -58 c-3 -7 -5 -2 -5 12 0 14 2 19 5 13 2 -7 2 -19 0 -25z"/>
<path d="M25288 36684 l-1888 -944 0 -2041 0 -2040 53 29 c28 17 308 172 621
346 314 174 572 318 574 320 2 2 -10 23 -27 47 -17 23 -31 48 -31 55 0 7 15
25 33 40 28 23 32 33 32 75 0 26 4 51 8 55 4 5 34 -1 65 -11 l57 -20 7 -49 c4
-28 15 -58 26 -69 18 -18 21 -18 51 -3 35 19 34 16 20 52 -14 39 -2 99 28 134
27 33 67 40 77 14 10 -25 7 -94 -5 -116 -6 -11 -7 -18 -2 -16 4 3 220 123 479
267 l472 262 133 -3 134 -3 5 -950 c3 -522 9 -944 13 -937 11 17 46 15 54 -4
9 -24 -14 -63 -42 -70 l-25 -6 0 -5774 0 -5774 2265 0 2265 0 0 2255 0 2255
-26 0 c-19 0 -25 4 -22 18 2 10 12 17 26 16 l22 -1 0 3198 0 3199 -22 127
c-17 99 -22 169 -22 308 -1 164 1 185 22 235 l22 55 0 3208 0 3207 -1782 -1
-1783 0 -1887 -945z m529 -537 c-6 -41 -31 -77 -54 -77 -19 0 -16 41 8 94 17
40 23 45 36 35 11 -9 14 -24 10 -52z m-109 -126 c22 -14 -5 -125 -42 -175 -29
-38 -131 -105 -142 -93 -8 8 34 86 76 142 20 28 47 70 59 93 22 44 27 47 49
33z m4450 -64 c22 -24 41 -87 26 -87 -15 0 -29 13 -58 52 -40 54 -13 83 32 35z
m-5210 -1101 c6 -29 -7 -66 -23 -66 -16 0 -21 44 -9 75 8 20 28 14 32 -9z
m4308 -678 c-7 -36 -23 -58 -42 -58 -14 0 -18 11 -14 45 3 28 19 45 42 45 18
0 20 -5 14 -32z m1048 -115 c-8 -35 -29 -58 -43 -49 -25 16 -2 76 30 76 16 0
18 -5 13 -27z m-1102 -200 c9 -8 24 -13 35 -11 18 3 19 1 15 -55 -2 -21 -7
-24 -58 -25 l-56 -1 6 29 c3 17 9 43 12 60 6 30 13 31 46 3z m-4651 -773 c14
-8 19 -21 19 -50 0 -36 -3 -40 -25 -40 -23 0 -25 3 -25 50 0 54 1 55 31 40z
m-661 -183 c0 -7 -9 -20 -20 -30 -11 -9 -20 -24 -20 -32 0 -8 -4 -15 -10 -15
-16 0 -12 50 5 56 8 4 15 12 15 20 0 8 7 14 15 14 8 0 15 -6 15 -13z m0 -232
c0 -48 -7 -60 -27 -44 -13 12 -18 65 -7 93 11 30 34 -3 34 -49z m-192 -81 c23
-16 28 -59 16 -136 -8 -46 -24 -48 -58 -7 -31 37 -36 111 -9 141 20 22 23 22
51 2z m4778 -40 c8 -32 -1 -113 -14 -126 -6 -6 -17 -5 -31 4 -24 15 -27 50 -9
109 13 46 44 54 54 13z m-626 -352 c18 -15 20 -21 11 -45 -13 -35 -36 -33 -64
5 -17 22 -18 30 -7 43 16 20 33 19 60 -3z m298 -615 c2 -10 -3 -17 -12 -17
-10 0 -16 9 -16 21 0 24 23 21 28 -4z m-1014 7 c11 -4 16 -19 16 -45 0 -44
-16 -53 -86 -47 -37 3 -39 5 -37 33 4 49 57 78 107 59z m1397 -40 c17 -47 -4
-77 -40 -55 -10 6 -12 19 -7 45 8 43 32 48 47 10z m-523 -32 c2 -33 0 -42 -12
-42 -12 0 -16 11 -16 46 0 59 24 55 28 -4z m2715 -144 c11 -17 -8 -78 -24 -78
-13 0 -22 47 -15 76 7 27 23 28 39 2z m-2385 -85 c4 -26 -23 -93 -37 -93 -14
0 -14 76 0 101 13 25 33 20 37 -8z m-1886 -45 c-7 -7 -12 -8 -12 -2 0 14 12
26 19 19 2 -3 -1 -11 -7 -17z m1788 -208 c0 -35 -52 -112 -113 -170 -39 -36
-101 -95 -139 -133 l-69 -67 -16 39 -16 40 -181 -2 c-201 -1 -265 8 -361 53
-33 16 -80 49 -104 74 l-45 45 34 15 c42 17 70 10 144 -40 78 -51 139 -56 262
-21 165 48 185 47 269 -17 84 -64 130 -47 215 79 59 87 120 141 120 105z m60
-610 c0 -55 -11 -63 -36 -25 -14 21 -15 31 -6 50 20 44 42 31 42 -25z m-1610
-181 c0 -15 -30 -23 -42 -11 -6 6 -8 18 -4 27 4 13 10 14 26 5 11 -6 20 -15
20 -21z m215 -64 c22 -8 58 -14 80 -15 39 0 41 -2 73 -63 35 -66 41 -114 17
-123 -25 -10 -105 45 -136 94 -16 25 -29 54 -29 64 0 20 -16 25 -22 6 -7 -19
-28 2 -28 28 0 13 1 24 3 24 1 0 20 -7 42 -15z m455 -109 c0 -57 -31 -76 -52
-32 -15 33 -4 56 27 56 20 0 25 -5 25 -24z m-477 -167 c15 -24 0 -65 -33 -89
l-30 -21 0 46 c0 75 34 110 63 64z m-407 -254 c4 -14 4 -29 0 -32 -3 -4 -6 1
-6 11 0 14 -3 15 -22 5 -18 -10 -24 -8 -35 7 -20 28 -16 34 22 34 29 0 36 -4
41 -25z m98 16 c4 -5 4 -16 0 -24 -6 -17 -49 -39 -58 -30 -8 8 -8 48 1 56 10
10 51 8 57 -2z m326 -107 c0 -38 4 -45 30 -59 16 -8 36 -15 45 -15 20 0 19
-24 -2 -82 -11 -31 -23 -48 -33 -48 -21 0 -55 37 -69 73 -12 31 -15 155 -5
181 12 30 34 -3 34 -50z m868 41 c2 -2 -4 -20 -13 -40 -16 -33 -119 -135 -137
-135 -4 0 -8 24 -8 54 0 44 5 60 26 85 34 40 105 59 132 36z m-1200 -294 c3
-24 0 -32 -10 -29 -7 3 -14 19 -16 37 -3 24 0 32 10 29 7 -3 14 -19 16 -37z
m1202 8 c17 -17 37 -44 45 -59 14 -28 14 -29 -19 -49 -153 -95 -228 -342 -212
-695 l7 -148 -35 6 c-28 5 -36 3 -41 -12 -3 -11 -47 -78 -98 -149 -50 -72 -97
-138 -103 -148 -7 -13 -16 -16 -28 -12 -16 6 -18 16 -14 57 5 54 -2 64 -20 28
-10 -22 -11 -22 -11 -2 -1 24 40 91 103 169 103 125 111 190 34 256 -30 25
-30 27 -18 65 14 43 37 74 53 71 6 -1 30 61 54 138 97 306 116 362 146 418 53
101 102 121 157 66z m530 -344 c0 -41 -13 -45 -36 -10 -18 28 -12 45 17 45 15
0 19 -7 19 -35z m-119 5 c13 0 11 -44 -3 -58 -22 -22 -45 -14 -50 18 -5 33 9
53 30 45 8 -3 18 -5 23 -5z m949 -319 c0 -20 -19 -41 -37 -41 -19 0 -16 47 4
59 21 12 33 5 33 -18z m-123 -109 c7 -5 11 -43 10 -118 l-2 -111 -27 46 c-71
120 -82 162 -50 180 20 12 52 14 69 3z m218 -330 c-47 -162 -158 -295 -357
-425 -65 -42 -122 -77 -127 -77 -11 0 4 72 24 110 18 34 74 84 123 109 57 29
104 87 161 198 56 110 102 162 153 172 42 9 46 -6 23 -87z m1502 -561 c-9 -73
-43 -132 -159 -271 -133 -159 -300 -319 -414 -397 -88 -60 -193 -118 -200
-111 -2 2 -6 29 -10 59 l-6 55 67 39 c87 51 204 162 365 345 138 157 234 251
308 300 25 17 48 30 50 30 3 0 2 -22 -1 -49z m-832 -10 c3 -11 -1 -35 -9 -54
-10 -26 -22 -37 -45 -42 -37 -8 -51 -1 -51 28 0 58 90 116 105 68z m-1379
-207 c-3 -9 -6 -22 -6 -30 0 -8 -4 -14 -10 -14 -11 0 -14 43 -3 53 12 13 25 7
19 -9z m1344 0 c20 -24 1 -65 -37 -81 -32 -13 -33 -12 -33 12 0 34 27 85 44
85 7 0 19 -7 26 -16z m-1412 -80 c5 -32 -29 -68 -56 -60 -17 6 -22 15 -22 40
0 41 7 48 45 44 22 -2 31 -9 33 -24z m-1691 -450 c-6 -57 -18 -71 -41 -49 -18
19 -14 48 12 78 26 29 35 20 29 -29z m3136 -62 c-75 -93 -185 -142 -322 -142
-128 0 -136 8 -84 78 40 54 73 65 223 72 86 4 148 12 170 22 19 8 37 14 39 12
3 -2 -9 -21 -26 -42z m-815 -146 c4 -20 -15 -46 -34 -46 -8 0 -14 10 -14 23 0
42 41 62 48 23z m-2558 -426 c22 -41 12 -67 -33 -89 -81 -39 -140 -25 -157 38
-14 52 -6 68 29 63 15 -2 48 3 72 11 48 16 71 10 89 -23z m892 -165 c9 -19 9
-28 0 -37 -16 -16 -42 8 -42 38 0 32 27 31 42 -1z m61 13 c14 -11 15 -17 4
-37 -21 -41 -37 -37 -37 8 0 43 6 49 33 29z m-1125 -279 c-17 -50 -41 -35 -25
16 8 26 13 32 23 24 9 -8 10 -18 2 -40z m142 47 c0 -2 2 -11 5 -18 7 -17 -52
-81 -60 -67 -6 9 2 65 12 82 4 7 43 10 43 3z m1741 -255 c-7 -13 -17 -17 -31
-14 -32 8 -31 17 3 54 l32 34 3 -27 c2 -15 -1 -36 -7 -47z m-94 -117 c-6 -65
-30 -123 -55 -132 -9 -3 -12 15 -12 68 0 82 19 130 52 130 20 0 21 -3 15 -66z
m1577 -21 c-11 -51 -45 -112 -76 -138 -17 -14 -32 -24 -34 -22 -8 8 49 137 71
161 32 34 47 33 39 -1z m67 -233 c13 -22 31 -42 41 -46 19 -6 23 -30 9 -52 -6
-10 -20 -11 -57 -5 l-49 8 -3 52 c-3 53 11 98 28 88 5 -3 19 -23 31 -45z
m-1923 -14 c4 -32 -16 -62 -31 -47 -13 13 1 83 16 78 7 -2 13 -16 15 -31z
m-973 -99 c8 -28 15 -57 15 -64 0 -16 10 -16 47 -2 25 9 31 7 50 -16 l23 -26
25 28 c24 26 26 27 39 10 8 -10 30 -21 50 -24 31 -5 36 -10 42 -40 9 -46 0
-108 -20 -138 l-16 -24 -35 24 c-20 13 -65 33 -101 45 -96 32 -152 74 -191
145 -39 72 -41 94 -8 125 14 13 25 31 25 39 1 29 39 -28 55 -82z m2386 -16
c36 -36 36 -54 3 -80 -34 -27 -50 -26 -69 2 -11 17 -12 31 -6 55 18 62 29 66
72 23z m-1571 -123 c0 -20 -47 -108 -54 -101 -13 13 -5 62 15 87 22 28 39 34
39 14z m2250 -132 c34 -67 43 -166 15 -166 -24 0 -82 58 -104 103 -23 49 -46
169 -37 194 10 25 90 -58 126 -131z m-642 -15 c71 -37 115 -101 105 -154 -12
-60 -50 -58 -121 6 -53 49 -98 113 -108 152 l-7 28 47 -6 c25 -4 63 -15 84
-26z m-2594 -126 c-32 -43 -107 -93 -150 -101 -65 -12 -131 19 -105 50 28 34
245 104 274 89 4 -2 -5 -20 -19 -38z m2562 -134 c40 -24 74 -81 81 -133 l6
-41 -49 8 c-58 8 -71 15 -103 49 -41 44 -29 136 18 136 9 0 30 -9 47 -19z
m-2356 -125 c0 -7 -7 -19 -15 -26 -19 -16 -41 1 -32 24 8 20 47 21 47 2z
m1848 -18 c3 -23 -1 -28 -17 -28 -12 0 -30 5 -40 12 -29 18 -9 50 27 46 21 -2
28 -9 30 -30z m-233 1 c4 -5 -8 -39 -26 -75 -30 -59 -35 -63 -47 -47 -25 35
10 133 49 133 10 0 21 -5 24 -11z m1289 -204 c20 -30 36 -32 36 -5 0 23 -2 23
39 9 24 -9 30 -15 25 -28 -4 -9 -12 -36 -19 -61 -12 -43 -14 -45 -50 -45 -38
0 -39 1 -52 50 -24 93 -13 133 21 80z m-2834 -30 c0 -8 -4 -15 -10 -15 -5 0
-10 7 -10 15 0 8 5 15 10 15 6 0 10 -7 10 -15z m481 -62 c15 -39 11 -44 -28
-41 -32 2 -39 7 -41 27 -4 28 22 53 45 44 8 -3 19 -17 24 -30z m950 -19 c11
-14 9 -24 -16 -70 -22 -41 -32 -51 -42 -42 -20 16 -16 72 8 102 24 30 32 32
50 10z m-231 -56 c0 -15 -28 -8 -34 8 -10 26 5 39 21 19 7 -11 13 -22 13 -27z
m-534 -54 c3 -19 3 -42 -1 -51 -6 -16 -8 -16 -26 6 -18 22 -26 81 -12 94 11
12 32 -14 39 -49z m2868 20 c11 -28 6 -62 -15 -119 -23 -62 -52 -89 -79 -75
-20 11 -40 60 -40 96 0 24 -14 32 -25 14 -9 -15 -25 -12 -25 4 0 29 46 68 95
81 67 18 82 18 89 -1z m94 -41 c-4 -22 -58 -31 -58 -10 0 20 10 27 37 27 18 0
24 -5 21 -17z m-3961 -109 c-3 -20 -9 -39 -12 -42 -10 -10 -25 21 -25 51 0 21
5 27 21 27 19 0 21 -4 16 -36z m3173 -50 c0 -18 -21 -29 -30 -15 -4 7 -5 24
-2 38 5 25 6 25 18 8 8 -10 14 -24 14 -31z m-1963 -20 c15 -23 15 -26 -1 -42
-13 -13 -20 -14 -34 -6 -21 14 -37 56 -29 78 8 22 40 7 64 -30z m-139 30 c18
-5 22 -13 22 -50 0 -52 -9 -59 -49 -37 -33 19 -42 58 -19 81 14 14 15 14 46 6z
m1752 -110 c0 -33 -33 -30 -38 4 -3 17 2 22 17 22 16 0 21 -6 21 -26z m-2920
-24 c0 -25 -18 -36 -26 -16 -8 21 3 49 16 41 5 -3 10 -15 10 -25z m3293 -525
c1 -85 -14 -132 -53 -170 l-30 -29 0 40 c0 22 11 78 25 124 14 46 25 95 25
110 0 15 3 30 7 34 13 13 25 -38 26 -109z m807 -93 c0 -15 -24 -32 -47 -32
-24 0 -32 25 -10 33 20 9 57 8 57 -1z m60 -58 c0 -8 -7 -14 -15 -14 -15 0 -21
21 -9 33 10 9 24 -2 24 -19z m-1165 -186 c5 -23 2 -35 -15 -54 -13 -13 -27
-21 -31 -18 -10 6 -12 118 -2 127 11 12 41 -23 48 -55z m-718 -36 c-10 -9 -24
-12 -41 -8 -35 9 -33 17 12 43 37 21 37 21 40 1 2 -11 -3 -27 -11 -36z m138
28 c-5 -8 -11 -8 -17 -2 -6 6 -7 16 -3 22 5 8 11 8 17 2 6 -6 7 -16 3 -22z
m-25 -33 c0 -78 -56 -187 -97 -187 -16 0 -18 92 -2 123 14 26 80 97 91 97 4 0
8 -15 8 -33z m-1353 -191 c23 -22 45 -52 48 -68 6 -26 10 -28 52 -28 39 0 44
-2 33 -15 -16 -19 -73 -19 -108 -1 -62 32 -112 106 -112 163 0 26 0 26 23 7
12 -10 41 -36 64 -58z m1173 -117 c0 -84 -53 -180 -120 -214 -32 -17 -40 -12
-40 27 0 41 -23 36 -79 -17 -39 -36 -55 -45 -85 -45 -40 0 -45 13 -22 58 21
41 46 60 116 87 77 30 78 30 82 5 2 -16 17 -3 66 60 35 44 68 78 73 75 5 -4 9
-20 9 -36z m1037 -154 c25 -69 29 -105 10 -105 -34 0 -77 83 -77 148 0 19 5
23 22 20 18 -2 28 -17 45 -63z m-2446 -69 c11 -39 26 -84 33 -101 18 -41 11
-56 -17 -42 -18 8 -29 32 -50 111 -15 56 -28 110 -27 120 0 41 40 -16 61 -88z
m3255 -169 l27 -24 -37 -28 c-27 -20 -49 -29 -79 -29 -41 -1 -42 0 -40 29 3
36 44 75 78 75 13 0 36 -10 51 -23z m-2278 -119 c19 -19 15 -66 -7 -78 -31
-16 -51 -12 -63 14 -9 22 -7 28 18 50 34 29 36 30 52 14z m122 -514 c7 -19 18
-34 26 -34 8 0 14 -7 14 -15 0 -18 -30 -20 -30 -2 -1 6 -23 23 -50 36 -49 24
-50 25 -50 68 l0 44 40 -32 c22 -18 44 -47 50 -65z m180 -147 c0 -7 13 -18 30
-24 17 -6 34 -23 41 -40 6 -15 15 -36 20 -45 12 -24 11 -28 -6 -28 -9 0 -12 6
-8 17 4 9 2 14 -3 10 -10 -6 -134 103 -134 116 0 4 14 7 30 7 18 0 30 -5 30
-13z m-1342 -309 c18 -18 15 -28 -8 -28 -13 0 -20 7 -20 20 0 23 10 26 28 8z
m-437 -34 l30 -15 -24 -19 c-14 -11 -32 -38 -41 -61 -24 -58 -41 -46 -42 32
-1 35 1 67 3 72 7 12 42 8 74 -9z m1292 -99 c-3 -9 -8 -14 -10 -11 -3 3 -2 9
2 15 9 16 15 13 8 -4z m137 -10 c0 -37 -35 -68 -60 -55 -16 9 -18 15 -10 30 8
15 52 47 68 50 1 0 2 -11 2 -25z m2210 -89 c0 -37 -25 -52 -55 -32 -43 28 -31
54 28 55 22 1 27 -3 27 -23z m-1802 -167 c-3 -32 -30 -60 -45 -46 -4 5 -2 16
5 25 7 9 15 25 18 35 10 29 25 19 22 -14z m-1420 -176 l3 -40 -51 -6 c-62 -7
-78 -2 -86 29 -9 35 11 52 64 57 67 5 67 5 70 -40z m2709 -44 c21 -39 15 -109
-13 -169 -43 -92 -81 -121 -71 -52 17 104 53 252 62 249 6 -2 16 -14 22 -28z
m-1777 -133 c0 -30 -26 -54 -42 -38 -9 9 -9 18 0 37 15 32 42 33 42 1z m1824
-142 c10 -4 16 -18 16 -40 0 -19 11 -56 25 -83 28 -54 25 -76 -11 -85 -26 -7
-100 9 -108 23 -3 5 8 35 25 66 22 41 30 68 27 92 -4 34 -1 37 26 27z m-211
-70 c-3 -8 -9 -14 -13 -14 -14 0 -22 20 -16 37 5 12 9 13 21 3 7 -6 11 -18 8
-26z m-2888 -34 c-4 -14 -15 -34 -26 -45 -19 -19 -19 -19 -19 5 0 14 5 43 11
65 11 37 12 38 26 20 8 -12 11 -30 8 -45z m349 -47 c1 -21 -3 -40 -9 -43 -14
-8 -29 43 -21 75 10 38 29 18 30 -32z m2479 -26 c11 -44 -3 -87 -28 -87 -23 0
-55 37 -55 63 0 34 28 69 53 65 16 -2 24 -14 30 -41z m221 -293 c15 -6 23 -34
10 -34 -15 0 -44 22 -39 31 7 11 9 11 29 3z"/>
<path d="M28935 18723 c-213 -17 -362 -38 -500 -69 -968 -222 -1556 -882
-1646 -1847 -15 -162 -7 -492 16 -647 92 -636 410 -1109 988 -1470 222 -138
433 -239 942 -447 565 -231 758 -335 907 -492 118 -122 168 -240 168 -391 0
-153 -49 -269 -160 -380 -125 -126 -253 -174 -460 -173 -205 2 -354 57 -476
178 -128 127 -164 235 -164 508 l0 167 -896 0 -896 0 5 -272 c3 -224 8 -295
27 -398 155 -869 752 -1467 1680 -1684 269 -63 627 -92 933 -76 421 23 751
103 1072 259 627 305 1002 833 1117 1573 29 192 32 604 4 803 -89 649 -387
1123 -931 1481 -230 151 -457 262 -885 431 -146 57 -317 125 -380 150 -160 63
-401 182 -491 242 -42 28 -108 82 -146 120 -112 112 -163 230 -163 377 0 305
249 501 610 481 210 -12 358 -81 456 -210 66 -88 85 -161 91 -344 l6 -153 883
0 884 0 0 168 c0 394 -62 694 -200 977 -358 729 -1175 1154 -2199 1143 -86 -1
-174 -3 -196 -5z m415 -128 c0 -28 -7 -51 -19 -66 -20 -24 -20 -24 -35 -4 -21
27 -20 103 1 127 15 17 17 17 35 2 12 -12 18 -31 18 -59z m-400 -333 c0 -25
-3 -42 -7 -39 -3 4 -12 2 -19 -4 -23 -19 -44 -2 -44 35 0 53 7 63 40 58 28 -4
30 -7 30 -50z m-1636 -450 c2 -4 2 -13 -2 -18 -7 -10 -72 -46 -72 -39 0 2 -3
10 -6 18 -11 30 63 66 80 39z m-276 -1564 c-7 -20 -56 -34 -69 -21 -18 18 -1
33 37 33 24 0 34 -4 32 -12z m160 -33 c4 -4 -8 -65 -12 -65 -1 0 -17 8 -36 18
-27 13 -34 22 -32 41 3 21 7 22 40 16 20 -4 39 -8 40 -10z m2037 -439 c0 -30
-31 -44 -51 -24 -24 24 -11 50 23 46 20 -2 28 -9 28 -22z m-545 -66 c0 -11 -4
-20 -10 -20 -5 0 -10 9 -10 20 0 11 5 20 10 20 6 0 10 -9 10 -20z m470 -337
c-1 -11 -26 -43 -34 -43 -8 0 -8 35 1 43 9 9 33 9 33 0z m-445 -209 c0 -10 -8
-20 -17 -22 -18 -3 -26 27 -11 42 12 11 28 0 28 -20z m614 -98 c19 -23 10 -90
-12 -94 -40 -8 -67 7 -67 36 0 56 51 92 79 58z m-969 -35 c0 -24 -24 -44 -47
-39 -29 5 -26 33 4 45 40 16 43 15 43 -6z m-452 -165 c4 -18 -21 -46 -40 -46
-10 0 -11 54 -1 64 13 12 38 1 41 -18z m1400 -15 c3 -27 0 -32 -14 -29 -10 1
-17 6 -16 11 1 4 2 19 2 33 0 37 24 25 28 -15z m-1611 -47 c-9 -9 -28 6 -21
18 4 6 10 6 17 -1 6 -6 8 -13 4 -17z m2437 -903 c22 -24 7 -35 -35 -26 -29 7
-30 8 -13 26 21 24 27 24 48 0z m540 -22 c-3 -5 -10 -7 -15 -3 -5 3 -7 10 -3
15 3 5 10 7 15 3 5 -3 7 -10 3 -15z m-799 -979 c0 -19 -45 -26 -56 -9 -12 20
0 30 29 27 16 -2 27 -9 27 -18z m-72 -7 c20 -11 -9 -23 -56 -23 l-52 1 24 19
c21 18 54 19 84 3z m-538 -1362 c-4 -17 -11 -31 -16 -31 -16 0 -20 25 -9 55
14 38 35 19 25 -24z m-603 -90 c0 -45 -5 -57 -21 -46 -6 3 -11 32 -11 63 0 51
1 55 16 41 9 -9 15 -34 16 -58z"/>
<path d="M10410 14975 l0 -3625 1238 0 c1228 0 1472 5 1691 35 619 85 1146
344 1496 735 90 100 155 185 155 202 0 8 12 25 26 39 33 31 122 188 172 304
43 98 104 281 126 375 l14 58 -27 7 c-42 11 -92 54 -112 99 -18 41 -25 137
-13 184 9 31 63 29 133 -3 30 -14 57 -23 60 -19 3 3 6 724 6 1602 0 1770 3
1677 -66 1960 -29 119 -89 301 -110 332 -8 13 -11 13 -23 -3 -12 -15 -18 -16
-35 -8 -30 17 -44 49 -36 87 4 25 11 34 26 34 19 0 17 6 -21 78 -191 355 -511
661 -887 850 l-79 40 -12 -44 c-13 -47 -22 -53 -46 -28 -18 18 -20 42 -7 77 9
23 6 25 -127 74 -204 75 -393 121 -663 160 -100 15 -279 17 -1496 20 l-1383 4
0 -3626z m1704 3579 c9 -23 7 -54 -3 -54 -11 0 -21 25 -21 51 0 23 15 25 24 3z
m1030 -31 c-11 -45 -24 -63 -50 -73 -43 -17 -54 -13 -54 22 0 43 34 78 77 78
31 0 33 -2 27 -27z m-402 -30 c23 -21 24 -83 1 -130 -18 -38 -85 -93 -113 -93
-24 0 -34 66 -19 124 13 53 63 116 91 116 12 0 30 -7 40 -17z m-754 -19 c34
-23 28 -61 -15 -101 -34 -33 -38 -34 -50 -17 -18 24 -16 85 3 112 18 26 32 28
62 6z m152 3 c0 -7 14 -23 30 -35 36 -27 40 -64 8 -86 -40 -28 -46 -21 -50 59
-2 41 0 75 5 75 4 0 7 -6 7 -13z m700 -152 c24 -29 -5 -114 -70 -200 -30 -41
-30 -41 -15 -79 27 -65 13 -77 -24 -18 -18 28 -37 52 -42 52 -15 0 -10 36 11
92 11 29 20 67 20 83 1 23 10 36 38 57 43 31 64 34 82 13z m1675 -495 c4 -6 3
-24 0 -41 -6 -24 -9 -28 -21 -18 -19 15 -19 69 0 69 8 0 18 -5 21 -10z m100
-633 c12 -19 33 -36 53 -42 30 -8 32 -12 32 -52 0 -41 -5 -49 -79 -123 -43
-44 -87 -81 -97 -81 -36 -2 -59 3 -81 17 -19 12 -23 23 -23 67 0 73 28 117 74
117 19 0 38 -5 41 -10 14 -22 25 4 25 59 0 50 12 82 30 81 3 -1 14 -15 25 -33z
m-1575 -193 c0 -6 21 -17 47 -24 93 -23 203 -89 284 -169 86 -87 118 -139 162
-266 l31 -90 4 -307 4 -308 29 0 c28 0 29 -2 29 -45 0 -39 -3 -46 -30 -60
l-29 -15 -3 -1108 c-4 -1215 0 -1142 -63 -1279 l-24 -53 24 0 c14 0 45 -5 70
-12 42 -11 46 -10 70 12 28 27 42 22 26 -9 -17 -32 -72 -69 -122 -82 -39 -10
-50 -10 -78 4 l-33 17 -45 -50 c-67 -75 -178 -144 -287 -179 -130 -42 -261
-53 -596 -49 l-285 3 -3 2043 -2 2043 410 -2 c310 -2 410 -6 410 -15z m670
-34 c18 -10 40 -59 40 -91 0 -10 -11 -26 -24 -34 -19 -13 -28 -14 -51 -3 -28
13 -55 55 -55 87 0 41 48 63 90 41z m-2597 -61 c46 -12 55 -31 33 -65 -40 -59
-131 -81 -216 -50 -49 18 -51 47 -7 91 32 32 40 35 94 35 32 0 75 -5 96 -11z
m3608 -609 c72 -20 101 -120 35 -120 -43 0 -106 80 -92 117 6 16 10 16 57 3z
m639 -162 c0 -8 -23 -36 -50 -63 -28 -28 -63 -67 -77 -88 -25 -36 -27 -37 -35
-17 -10 28 4 89 40 175 17 39 33 85 37 103 l7 33 39 -65 c21 -36 39 -71 39
-78z m-370 -220 c-1 -31 -2 -32 -15 -15 -7 11 -11 25 -8 33 10 25 23 15 23
-18z m-1162 -361 c-6 -13 -13 -16 -20 -9 -7 7 -6 17 2 32 9 17 14 20 20 9 5
-7 4 -22 -2 -32z m1152 3 c0 -27 -31 -90 -42 -84 -13 8 -10 42 7 74 18 34 35
39 35 10z m211 -97 c13 -16 12 -17 -3 -4 -17 13 -22 21 -14 21 2 0 10 -8 17
-17z m-362 -37 c17 -21 3 -96 -18 -96 -9 0 -22 5 -29 12 -13 13 -17 80 -5 91
11 12 40 8 52 -7z m-4051 -34 c4 -28 -14 -53 -34 -45 -14 5 -20 54 -7 67 14
13 38 0 41 -22z m3049 -44 c-3 -7 -5 -2 -5 12 0 14 2 19 5 13 2 -7 2 -19 0
-25z m-97 -133 c0 -8 -4 -15 -10 -15 -5 0 -10 7 -10 15 0 8 5 15 10 15 6 0 10
-7 10 -15z m-12 -172 c-4 -22 -48 -31 -48 -10 0 19 10 27 32 27 13 0 18 -6 16
-17z m-1878 -428 c25 -13 30 -22 30 -51 0 -42 -15 -74 -35 -74 -26 0 -55 50
-55 96 0 49 11 54 60 29z m321 -947 c9 -16 8 -43 -1 -112 -7 -50 -16 -100 -21
-111 -6 -18 -8 -18 -18 8 -6 16 -11 40 -11 55 0 47 23 182 31 182 5 0 14 -10
20 -22z m2773 -210 c22 -31 20 -70 -5 -102 -24 -30 -75 -60 -89 -51 -6 3 -10
38 -10 76 0 61 3 73 25 95 28 28 51 22 79 -18z m-302 -18 c14 -10 35 -42 47
-71 22 -49 23 -50 42 -33 10 9 21 15 23 13 15 -17 26 -53 26 -83 0 -30 -6 -40
-32 -56 -67 -40 -127 -12 -113 52 3 18 7 49 8 68 2 35 2 35 -43 38 -57 4 -65
13 -46 50 24 46 50 53 88 22z m384 -215 c28 -19 65 -105 57 -133 -5 -19 -12
-22 -55 -22 -41 0 -54 5 -79 29 -36 36 -37 70 -3 110 28 34 49 38 80 16z
m-688 -53 c2 -12 -15 -55 -37 -96 -23 -40 -41 -81 -41 -90 0 -21 -21 -20 -59
2 -36 20 -37 24 -11 80 30 65 59 103 94 118 39 16 50 13 54 -14z m702 -262
c12 -7 12 -12 0 -34 l-13 -26 -14 26 c-19 37 -5 55 27 34z m44 -196 c21 -56
-15 -107 -83 -119 -23 -4 -45 -5 -48 -1 -7 7 63 102 90 121 27 19 33 19 41 -1z
m-144 -124 c0 -22 -8 -25 -30 -10 -13 9 -13 11 0 20 22 15 30 12 30 -10z m128
-32 c7 -7 12 -25 12 -40 0 -24 -4 -28 -28 -28 -38 0 -41 4 -28 45 11 37 24 43
44 23z m-238 -124 c0 -13 -4 -24 -10 -24 -5 0 -10 14 -10 31 0 17 4 28 10 24
6 -3 10 -17 10 -31z m-1450 -343 c0 -36 -41 -77 -91 -92 -47 -15 -69 -7 -69
25 0 30 26 50 92 72 26 8 48 20 48 25 0 6 5 7 10 4 6 -3 10 -19 10 -34z m640
8 c0 -16 -31 -38 -52 -39 -22 0 -23 13 -3 30 8 7 15 9 15 4 0 -4 5 -3 12 4 15
15 28 15 28 1z m-100 -60 c0 -5 -10 -9 -21 -9 -18 0 -19 2 -9 15 12 15 30 12
30 -6z m-210 -84 c0 -18 -46 -42 -58 -31 -7 8 33 46 49 46 5 0 9 -7 9 -15z
m-100 -70 c0 -17 -6 -40 -14 -50 -13 -18 -14 -17 -30 13 -9 17 -16 44 -16 61
0 28 1 29 30 18 24 -9 30 -17 30 -42z"/>
<path d="M17285 18588 c-2 -7 -328 -1502 -725 -3323 -396 -1821 -723 -3318
-726 -3327 -4 -14 0 -18 20 -18 27 0 51 -32 42 -56 -6 -17 -47 -19 -63 -3 -9
9 -13 6 -17 -12 -19 -79 -106 -485 -106 -491 0 -5 338 -8 750 -8 l750 0 0 33
c0 41 -10 77 -21 77 -5 0 -9 -7 -9 -15 0 -8 -4 -15 -9 -15 -4 0 -11 33 -14 73
-4 39 -18 118 -32 175 -30 125 -30 126 -5 112 28 -15 44 -50 74 -165 15 -55
35 -112 46 -127 15 -20 20 -43 20 -88 l0 -60 189 0 c188 0 189 0 194 23 3 12
47 302 98 645 l93 622 705 -2 705 -3 20 -127 c16 -107 23 -129 38 -134 18 -5
58 -59 58 -76 0 -5 -13 -8 -30 -8 -16 0 -30 -2 -30 -5 0 -10 140 -891 145
-912 l5 -23 996 0 c793 0 995 3 991 13 -2 6 -17 71 -32 142 -16 72 -35 138
-42 147 -8 9 -12 25 -9 36 5 14 -759 3533 -779 3589 -3 9 -12 8 -34 -3 -17 -9
-43 -14 -58 -12 -23 2 -29 9 -31 33 -2 16 1 47 8 67 11 37 12 38 50 32 22 -4
40 -4 40 -1 0 2 -157 722 -350 1598 -192 876 -350 1597 -350 1601 0 5 -576 8
-1280 8 -1016 0 -1281 -3 -1285 -12z m1673 -86 c2 -34 -1 -62 -6 -62 -4 0 -20
6 -36 13 -24 10 -27 16 -22 46 6 36 33 74 50 68 6 -2 12 -31 14 -65z m-700
-188 c-5 -42 -28 -43 -28 -1 0 18 3 37 7 41 12 12 25 -11 21 -40z m1496 -896
c19 -27 21 -78 3 -102 -13 -17 -14 -17 -30 7 -24 36 -30 72 -17 96 14 27 25
27 44 -1z m-2072 -42 c95 -39 148 -94 148 -153 0 -43 -31 -67 -76 -60 -42 7
-167 79 -201 115 -30 33 -29 67 3 97 33 31 54 31 126 1z m2200 -53 c22 -19 23
-52 4 -98 -12 -27 -21 -35 -40 -35 -24 0 -26 4 -26 40 0 41 23 110 36 110 4 0
16 -7 26 -17z m248 -411 c0 -48 -23 -82 -56 -82 -25 0 -25 2 -19 43 8 48 29
77 57 77 14 0 18 -8 18 -38z m-1337 -1375 c115 -736 207 -1340 205 -1343 -3
-2 -211 -3 -464 -2 l-459 3 169 1113 c168 1107 169 1113 148 1127 -11 8 -25
28 -31 45 -11 33 -11 33 40 44 30 6 29 3 65 244 l17 113 51 -3 50 -3 209
-1338z m357 1183 c0 -38 -42 -163 -62 -185 -15 -16 -38 24 -38 66 0 46 14 84
46 126 35 46 54 43 54 -7z m-2076 -388 c-9 -36 -29 -56 -48 -49 -21 8 -21 55
0 78 25 27 56 8 48 -29z m-76 -26 c5 -22 -24 -66 -43 -66 -20 0 -20 46 0 54 8
3 15 13 15 22 0 20 24 13 28 -10z m2282 -322 c0 -17 -7 -37 -15 -44 -13 -10
-15 -9 -15 12 0 13 -7 48 -16 78 -13 43 -13 58 -3 79 12 25 12 25 30 -34 10
-33 19 -74 19 -91z m935 -459 c28 -27 29 -33 15 -71 -10 -26 -11 -26 -24 -8
-13 17 -17 17 -40 4 -30 -15 -40 -9 -50 31 -6 26 11 50 44 62 25 9 30 8 55
-18z m-2600 -29 c18 -13 18 -14 -1 -47 -26 -45 -77 -70 -133 -67 -25 2 -46 8
-48 14 -6 19 41 79 77 96 42 21 80 23 105 4z m2792 -421 c57 -33 60 -39 39
-90 -31 -72 -116 -25 -116 64 0 33 9 63 19 59 3 -2 30 -17 58 -33z m-896 -222
c12 -30 3 -153 -11 -153 -15 0 -21 53 -14 117 3 35 8 63 10 63 3 0 9 -12 15
-27z m914 -92 c10 -18 -26 -41 -65 -41 -47 0 -58 13 -28 34 24 17 83 22 93 7z
m-125 -39 c0 -18 -37 -40 -78 -47 -39 -6 -43 -5 -40 11 2 10 14 24 28 31 28
14 90 17 90 5z m-742 -512 c4 -42 -6 -100 -18 -100 -15 0 -22 40 -15 91 8 57
28 62 33 9z m1152 -66 c0 -20 -38 -46 -62 -42 -19 2 -22 8 -19 33 1 17 8 33
13 36 14 9 68 -13 68 -27z m-1220 -443 c0 -5 -4 -21 -10 -35 -11 -29 -30 -35
-30 -10 0 12 -6 15 -25 10 -31 -8 -32 8 -3 28 25 18 68 21 68 7z m-3074 -59
c29 -16 -10 -32 -87 -36 -41 -2 -82 -7 -91 -11 -14 -6 -18 -2 -18 18 0 18 8
28 28 36 29 12 143 7 168 -7z m2308 -27 c72 -36 60 -47 -47 -44 -84 4 -99 7
-120 27 l-25 24 -4 -24 c-2 -12 -7 -23 -12 -23 -15 0 -29 31 -22 50 5 15 18
17 99 13 65 -3 104 -10 131 -23z m-547 -31 c-9 -9 -28 6 -21 18 4 6 10 6 17
-1 6 -6 8 -13 4 -17z m225 0 c-10 -63 -132 -77 -132 -15 0 39 7 43 75 39 53
-4 60 -7 57 -24z m398 -300 c0 -55 -19 -153 -36 -184 l-13 -25 -1 35 c0 59 33
242 42 228 4 -7 8 -31 8 -54z m1711 -435 c37 -19 62 -48 71 -86 6 -24 -1 -27
-104 -36 l-48 -5 0 40 c0 32 3 39 15 34 20 -7 19 3 -5 42 -11 18 -20 35 -20
37 0 9 52 -7 91 -26z m-173 -38 c23 -75 19 -83 -60 -123 -40 -20 -76 -34 -80
-32 -15 10 -8 89 11 120 15 25 89 74 112 74 3 0 11 -17 17 -39z m99 -143 c18
-22 36 -89 26 -99 -14 -14 -34 6 -43 42 -4 19 -11 42 -15 52 -8 20 17 24 32 5z
m-797 -380 c0 -27 -1 -28 -60 -28 -47 0 -62 4 -67 16 -9 25 18 39 76 39 49 0
51 -1 51 -27z m-2910 -193 c0 -13 -13 -87 -27 -145 -5 -24 -5 -24 -13 -4 -9
24 18 164 32 164 4 0 8 -7 8 -15z m-100 -99 c0 -54 -8 -76 -26 -76 -19 0 -34
32 -34 73 0 40 6 47 37 47 21 0 23 -5 23 -44z"/>
<path d="M21035 18583 c3 -10 31 -75 62 -145 53 -121 57 -128 84 -128 27 0 29
-3 29 -39 0 -22 -4 -41 -10 -43 -5 -1 77 -201 184 -443 183 -415 196 -441 228
-457 54 -26 61 -40 42 -81 l-17 -35 364 -826 c316 -717 366 -824 377 -809 11
16 14 16 22 3 5 -8 10 -35 10 -59 0 -37 2 -42 15 -31 12 10 15 9 15 -7 0 -11
5 -34 11 -51 8 -24 16 -31 32 -29 17 1 27 -8 43 -40 l22 -42 6 29 c3 18 12 30
21 30 21 0 21 -92 0 -110 -17 -15 -19 -65 -5 -141 11 -56 24 -72 52 -65 15 3
23 -14 47 -92 17 -54 39 -135 51 -181 12 -47 73 -201 140 -354 l120 -270 0
-1409 0 -1408 905 0 905 0 0 1406 0 1407 970 2213 c534 1217 970 2215 970
2218 0 3 -105 6 -234 6 l-235 0 -3 -22 c-4 -29 -30 -30 -43 -1 l-9 22 -750 -2
-749 -2 -18 -62 c-16 -59 -16 -62 1 -51 9 6 25 8 35 5 15 -6 14 -10 -8 -37
-14 -16 -39 -67 -56 -112 -17 -46 -42 -103 -55 -128 -13 -25 -155 -502 -315
-1060 -161 -558 -299 -1037 -307 -1063 l-16 -48 -50 3 -50 3 -368 1255 c-202
690 -370 1265 -374 1278 l-7 22 -1046 0 c-991 0 -1045 -1 -1038 -17z m4019
-26 c15 -11 16 -17 7 -35 -6 -11 -21 -24 -33 -27 -13 -4 -31 -9 -40 -11 -14
-4 -18 1 -18 22 0 52 45 79 84 51z m-2606 -276 c39 -20 109 -87 100 -96 -2 -3
-56 -6 -119 -7 -93 -2 -120 1 -147 15 -18 10 -36 25 -39 33 -6 17 31 61 62 75
28 13 99 3 143 -20z m-48 -189 c0 -41 -18 -60 -77 -81 l-53 -19 0 28 c0 39 27
68 80 84 25 8 46 14 48 15 1 1 2 -12 2 -27z m2850 -87 c0 -21 -43 -63 -72 -70
-12 -3 -59 0 -102 8 l-79 13 23 22 c28 26 83 39 168 41 50 1 62 -2 62 -14z
m916 -18 c31 4 43 1 57 -15 17 -18 17 -20 -1 -42 -17 -21 -21 -22 -55 -11 -26
9 -42 9 -56 2 -29 -16 -31 -14 -31 27 0 45 6 55 29 42 10 -5 35 -6 57 -3z
m-4132 -39 c30 -43 21 -61 -46 -91 -35 -15 -75 -27 -90 -27 -25 0 -28 4 -28
33 0 29 6 35 68 69 37 20 70 37 74 38 4 0 14 -10 22 -22z m2589 -25 c21 -11
65 -17 132 -20 159 -6 172 -14 115 -68 -26 -25 -40 -30 -93 -32 -88 -5 -241
27 -245 50 -3 14 42 83 56 86 2 1 17 -6 35 -16z m-2329 -172 c22 -25 46 -103
46 -153 0 -36 -1 -38 -33 -38 -75 0 -88 -64 -62 -309 13 -124 16 -181 8 -213
l-10 -43 -7 60 c-4 33 -19 110 -32 170 -14 61 -30 136 -36 168 l-10 58 -17
-33 c-22 -44 -45 -43 -49 2 -1 19 -12 75 -24 124 l-22 89 45 40 c101 91 168
117 203 78z m3756 8 c0 -15 -26 -39 -34 -32 -14 15 -5 43 14 43 11 0 20 -5 20
-11z m-2914 -495 c-9 -35 -42 -64 -71 -64 -39 0 -105 37 -105 59 0 42 31 60
105 63 76 3 84 -4 71 -58z m-1116 -154 c8 -14 7 -29 -4 -55 -20 -46 -69 -68
-156 -69 -64 -1 -65 -1 -68 28 -5 39 16 84 47 101 15 8 56 14 98 15 62 0 74
-3 83 -20z m3380 -1441 c0 -5 -7 -9 -15 -9 -15 0 -20 12 -9 23 8 8 24 -1 24
-14z m-140 -60 c0 -5 -7 -9 -15 -9 -15 0 -20 12 -9 23 8 8 24 -1 24 -14z
m-2785 -9 c3 -5 9 -33 12 -61 5 -46 4 -51 -13 -47 -13 2 -24 20 -35 53 -9 28
-14 53 -12 58 6 10 41 9 48 -3z m2745 0 c0 -5 -4 -10 -10 -10 -5 0 -10 5 -10
10 0 6 5 10 10 10 6 0 10 -4 10 -10z m-1970 -694 c0 -58 -17 -99 -44 -104 -16
-3 -17 2 -11 55 4 32 11 73 17 91 15 49 38 24 38 -42z m45 -29 c-4 -20 -11
-35 -15 -32 -11 7 -20 62 -13 81 5 13 8 14 20 1 10 -10 12 -25 8 -50z m-1 -73
c3 -9 6 -27 6 -41 0 -32 -34 -28 -38 5 -6 44 18 71 32 36z m371 -1330 c21 -8
44 -13 51 -10 19 7 18 -3 -3 -26 -32 -35 -88 -17 -106 35 -8 21 9 22 58 1z
m105 -38 c0 -18 -26 -40 -34 -27 -9 14 4 41 20 41 8 0 14 -6 14 -14z m-99
-1654 c25 -23 29 -32 24 -55 -5 -19 -12 -26 -24 -23 -9 2 -38 7 -66 11 -91 13
-110 40 -52 75 45 28 81 25 118 -8z"/>
<path d="M12000 10365 c-258 -58 -432 -219 -479 -443 -7 -35 -11 -221 -11
-540 0 -404 3 -498 15 -547 72 -282 318 -445 668 -445 287 1 508 113 612 310
67 130 68 137 73 629 2 294 0 473 -8 528 -34 257 -186 427 -445 499 -84 23
-338 29 -425 9z m286 -424 c51 -23 89 -71 104 -131 7 -31 10 -174 8 -450 -3
-388 -4 -407 -24 -445 -11 -22 -40 -53 -63 -70 -39 -27 -50 -30 -120 -30 -69
0 -82 3 -119 29 -23 16 -50 46 -62 70 -19 41 -20 60 -20 477 l0 435 29 45 c52
83 170 114 267 70z m494 -912 c0 -5 -7 -9 -15 -9 -15 0 -20 12 -9 23 8 8 24
-1 24 -14z"/>
<path d="M21480 10374 c-83 -16 -130 -35 -130 -54 0 -11 -8 -24 -19 -29 -22
-12 -32 -5 -24 16 5 12 -2 11 -33 -5 -108 -56 -192 -149 -234 -261 -21 -58
-22 -63 -6 -74 11 -8 15 -19 10 -30 -9 -24 -24 -21 -25 6 -3 51 -18 -64 -18
-138 -2 -285 125 -449 453 -589 131 -56 138 -57 148 -26 7 22 7 21 3 -6 -4
-29 0 -33 37 -50 103 -46 158 -109 158 -180 0 -112 -132 -179 -244 -124 -59
29 -80 63 -84 137 l-4 63 -239 0 -239 0 0 -67 c1 -246 142 -447 370 -528 l41
-14 -16 22 c-17 24 -19 64 -6 86 16 25 39 -5 51 -64 11 -52 13 -55 48 -62 71
-15 312 -9 381 10 110 30 190 75 262 146 114 114 151 209 154 401 3 156 -10
231 -56 322 -64 126 -177 215 -379 299 l-115 48 -22 -20 c-20 -19 -23 -20 -45
-5 -22 15 -29 15 -68 1 -53 -19 -74 -19 -89 -1 -15 18 12 38 76 56 l41 13 -46
31 c-64 43 -87 78 -86 130 2 78 58 126 147 126 58 0 87 -11 126 -49 27 -27 31
-37 31 -86 l0 -55 235 0 235 0 0 63 c-1 257 -152 451 -408 523 -56 16 -315 28
-372 18z m68 -112 c5 -31 -15 -27 -21 3 -3 16 0 24 7 22 6 -2 12 -13 14 -25z
m-248 -122 c0 -32 -4 -40 -18 -40 -10 0 -28 -7 -40 -16 -27 -19 -39 -13 -47
27 -10 43 5 54 98 68 4 0 7 -17 7 -39z m244 -6 c3 -9 6 -33 6 -55 0 -35 -2
-38 -18 -28 -13 8 -16 21 -13 55 3 45 14 57 25 28z m-412 -125 c28 -37 10 -79
-32 -79 -34 0 -37 10 -18 72 13 43 23 44 50 7z m346 -58 c2 -12 1 -34 -3 -48
-9 -38 -35 -10 -35 39 0 32 3 39 18 36 9 -2 18 -14 20 -27z m532 -520 c0 -37
-24 -59 -45 -41 -15 13 -20 51 -8 63 3 4 17 7 30 7 19 0 23 -5 23 -29z"/>
<path d="M22885 10365 c-81 -18 -158 -49 -219 -90 -71 -47 -97 -77 -115 -132
-11 -34 -21 -48 -33 -47 -21 2 -50 -68 -68 -164 -19 -96 -8 -261 23 -346 31
-83 86 -166 142 -212 49 -40 61 -42 71 -11 3 12 25 49 47 82 22 32 49 79 60
103 14 33 21 41 28 31 16 -26 10 -85 -13 -118 -13 -17 -35 -48 -50 -69 -15
-20 -30 -49 -33 -64 -6 -23 -2 -29 37 -51 23 -14 95 -47 158 -73 258 -105 320
-154 320 -252 0 -111 -133 -176 -246 -121 -58 28 -84 71 -84 143 l0 56 -59 0
c-57 0 -58 -1 -53 -25 6 -32 -5 -75 -20 -75 -7 0 -9 16 -5 50 l6 50 -176 0
-176 0 5 -97 c14 -262 151 -431 418 -515 65 -20 95 -23 230 -23 118 0 170 4
219 18 217 60 363 208 406 415 21 98 19 243 -5 336 -53 209 -176 321 -488 445
-149 60 -215 95 -250 135 -83 95 -22 216 111 216 91 0 148 -49 155 -135 l4
-55 234 0 234 0 0 58 c-1 268 -162 467 -431 532 -99 23 -289 26 -384 5z"/>
<path d="M25896 10364 c-297 -72 -468 -322 -467 -685 0 -341 143 -567 384
-609 91 -16 170 -2 270 48 5 2 -34 -65 -86 -150 -129 -210 -122 -195 -86 -190
30 4 89 -14 89 -28 0 -14 -28 -31 -63 -37 -26 -4 -39 -1 -54 14 -20 20 -21 20
-114 -134 -52 -86 -95 -159 -97 -164 -2 -5 114 -9 270 -9 l274 0 206 418 c138
278 217 450 238 515 45 145 63 272 57 397 -17 317 -185 539 -463 610 -93 24
-268 26 -358 4z m242 -424 c53 -32 82 -106 82 -210 0 -47 -5 -102 -11 -123
-13 -49 -61 -103 -104 -117 -126 -42 -216 131 -174 332 16 74 79 138 135 138
22 0 54 -9 72 -20z m-466 -180 c1 -9 -1 -17 -7 -18 -5 -1 -11 10 -13 25 -4 29
13 23 20 -7z m102 4 c3 -8 2 -12 -4 -9 -6 3 -10 10 -10 16 0 14 7 11 14 -7z"/>
<path d="M27300 10364 c-93 -20 -217 -84 -278 -144 -59 -58 -117 -168 -132
-249 -6 -29 -10 -103 -10 -162 l0 -109 240 0 240 0 0 81 c0 128 37 179 129
179 81 0 132 -80 111 -175 -23 -103 -39 -127 -422 -637 l-298 -397 0 -166 0
-165 605 0 605 0 0 205 0 205 -275 0 c-183 0 -275 3 -275 10 0 6 90 131 200
278 267 356 331 482 347 688 21 284 -143 500 -425 559 -90 19 -274 18 -362 -1z
m530 -615 c0 -5 -7 -9 -15 -9 -15 0 -20 12 -9 23 8 8 24 -1 24 -14z"/>
<path d="M30313 10366 c-324 -79 -435 -405 -258 -759 25 -50 45 -93 45 -97 0
-3 -27 -25 -60 -48 -145 -103 -230 -280 -230 -481 1 -236 110 -417 313 -516
234 -114 510 -99 689 38 l44 34 44 -59 45 -58 187 0 188 0 0 74 0 73 -82 103
-81 102 28 56 c52 106 57 136 62 335 l5 187 -186 0 -185 0 -3 -111 -3 -111
-112 140 -112 140 59 46 c104 80 193 213 224 332 9 34 16 98 16 142 0 220
-125 381 -337 436 -72 19 -225 20 -300 2z m181 -316 c32 -12 66 -65 66 -102 0
-51 -40 -137 -90 -191 l-48 -52 -26 55 c-51 110 -57 201 -14 255 32 41 68 52
112 35z m11 -1070 c91 -116 163 -215 160 -219 -10 -17 -108 -33 -166 -28 -73
6 -133 39 -176 95 -54 72 -69 174 -37 269 15 46 40 93 49 93 2 0 78 -95 170
-210z m540 -325 c17 -18 25 -37 25 -59 0 -37 -12 -46 -60 -46 -30 0 -61 27
-43 38 15 10 33 48 33 71 0 28 14 26 45 -4z"/>
<path d="M10120 10140 l0 -210 195 0 195 0 0 -755 0 -755 240 0 240 0 2 753 3
752 193 3 192 2 0 210 0 210 -630 0 -630 0 0 -210z m728 -127 c-9 -49 -128
-101 -268 -119 l-55 -6 40 42 c63 66 139 98 233 99 45 1 53 -2 50 -16z m-164
-399 c42 -21 76 -41 76 -45 0 -12 -52 -29 -89 -29 -23 0 -51 9 -71 23 -33 22
-73 83 -65 98 8 12 70 -7 149 -47z m206 -1057 c0 -19 -21 -37 -42 -37 -21 0
-22 4 -8 31 12 21 50 26 50 6z"/>
<path d="M13670 9386 l0 -966 545 0 545 0 0 210 0 210 -305 0 -305 0 0 175 0
175 255 0 255 0 0 205 0 205 -175 0 c-168 0 -175 -1 -175 -20 0 -11 -5 -20
-11 -20 -6 0 -13 9 -16 20 -5 17 -14 20 -69 20 l-64 0 0 163 0 162 -49 57
c-27 31 -58 72 -70 91 -28 46 -52 115 -41 122 20 12 69 -50 120 -154 l54 -111
298 0 298 0 0 210 0 210 -231 0 -231 0 6 -24 c8 -32 -4 -88 -18 -83 -14 4 -33
43 -41 80 l-5 27 -151 0 -150 0 7 -22 c3 -13 12 -38 20 -55 7 -20 9 -35 3 -38
-9 -6 -11 -2 -13 25 -2 24 -151 83 -223 88 l-63 4 0 -966z m876 897 c-4 -34
-20 -40 -51 -19 -39 25 -32 46 14 46 37 0 39 -2 37 -27z m-268 -1485 c-6 -18
-28 -21 -28 -4 0 9 7 16 16 16 9 0 14 -5 12 -12z"/>
<path d="M14910 10346 c0 -3 103 -224 229 -491 l230 -486 -196 -422 c-107
-232 -206 -446 -218 -474 l-24 -53 272 0 272 0 85 280 c63 212 88 280 99 278
9 -2 43 -96 101 -278 l86 -275 292 -3 c161 -1 292 1 292 6 0 8 -378 823 -386
831 -2 2 -10 -1 -17 -7 -10 -9 -22 -8 -45 0 -27 10 -32 18 -32 45 0 33 29 61
50 48 6 -4 3 9 -6 28 l-16 34 215 469 215 469 -266 3 c-146 1 -267 0 -269 -2
-2 -2 -42 -124 -88 -272 -46 -147 -89 -272 -95 -278 -8 -8 -13 -7 -18 1 -4 6
-45 133 -91 282 l-85 271 -293 0 c-161 0 -293 -2 -293 -4z m674 -967 c22 -17
27 -28 24 -58 -4 -49 -30 -53 -74 -10 -25 24 -32 38 -28 53 13 41 39 46 78 15z
m247 -2 c-1 -12 -15 -9 -19 4 -3 6 1 10 8 8 6 -3 11 -8 11 -12z m29 -157 c0
-28 -15 -48 -27 -36 -3 3 -2 21 1 41 8 41 26 38 26 -5z"/>
<path d="M16610 9385 l0 -965 240 0 240 0 0 278 0 279 143 6 c86 4 175 15 226
27 229 55 384 204 448 431 25 90 25 356 0 449 -70 260 -257 413 -548 450 -46
5 -233 10 -416 10 l-333 0 0 -965z m647 769 c-9 -9 -28 6 -21 18 4 6 10 6 17
-1 6 -6 8 -13 4 -17z m24 -240 c217 -65 225 -416 11 -489 -26 -8 -79 -15 -124
-15 l-78 0 0 260 0 260 68 0 c38 0 93 -7 123 -16z m-541 -819 c0 -41 -22 -48
-41 -13 -10 18 -8 24 7 35 28 20 34 16 34 -22z"/>
<path d="M18130 9386 l0 -966 240 0 240 0 0 315 0 315 59 0 59 0 29 -77 c17
-43 69 -185 118 -315 l88 -238 283 0 c156 0 284 2 284 3 0 2 -76 164 -169 360
l-169 356 42 25 c105 61 200 206 231 351 19 90 19 280 0 370 -47 220 -196 375
-422 437 -73 20 -107 22 -495 26 l-418 4 0 -966z m745 517 c106 -56 151 -176
110 -294 -36 -102 -115 -144 -270 -144 l-100 0 -3 220 c-1 121 0 226 3 234 9
23 208 10 260 -16z m513 -240 c6 -10 13 -42 17 -70 l7 -53 -29 0 c-16 0 -34 5
-41 12 -17 17 -15 79 4 106 18 27 30 28 42 5z"/>
<path d="M19710 9385 l0 -965 545 0 545 0 0 210 0 210 -305 0 -305 0 0 175 0
175 255 0 255 0 0 205 0 205 -255 0 -255 0 0 165 0 165 305 0 305 0 0 210 0
210 -279 0 -279 0 -12 -30 c-14 -34 -30 -31 -30 6 l0 24 -245 0 -245 0 0 -965z
m460 806 c0 -35 -14 -61 -32 -61 -11 0 -10 26 3 71 14 46 29 42 29 -10z m-280
-141 c0 -10 -7 -23 -16 -31 -13 -10 -17 -10 -25 2 -10 17 -11 41 -3 64 6 14 8
14 25 -1 11 -9 19 -25 19 -34z m83 22 c14 -15 15 -23 5 -50 -7 -18 -17 -31
-23 -29 -13 5 -29 62 -22 81 8 21 20 20 40 -2z m797 -1400 c0 -24 -20 -50 -49
-65 -24 -12 -35 -26 -45 -60 -5 -16 -11 -15 -66 15 -56 31 -60 35 -60 70 0 36
1 37 33 31 19 -3 47 2 67 10 19 9 54 16 78 16 34 1 42 -2 42 -17z"/>
<path d="M24902 10333 c-26 -18 -122 -43 -170 -43 -20 0 -86 -27 -172 -70
l-140 -70 0 -219 0 -219 133 74 c74 41 141 74 150 74 16 0 17 -57 17 -720 l0
-720 240 0 240 0 0 965 0 965 -137 -1 c-109 0 -143 -3 -161 -16z m98 -1562
c25 -48 -2 -116 -62 -156 -22 -15 -42 -24 -45 -21 -9 9 15 146 28 163 12 14
44 31 61 32 4 1 12 -8 18 -18z m-230 -153 c0 -38 -14 -66 -24 -49 -9 14 4 81
15 81 5 0 9 -15 9 -32z"/>
<path d="M28765 10309 c8 -23 15 -55 15 -72 l0 -31 -32 30 c-18 17 -52 45 -75
63 l-42 32 -180 -91 -181 -90 0 -221 0 -221 33 20 c99 60 237 132 251 132 15
0 16 -67 16 -720 l0 -720 240 0 240 0 0 965 0 965 -150 0 -149 0 14 -41z m85
-55 c0 -15 -6 -24 -15 -24 -15 0 -21 40 -9 53 12 11 24 -3 24 -29z"/>
<path d="M16575 7709 c-266 -41 -450 -192 -510 -419 -22 -82 -22 -1010 0
-1093 51 -198 204 -343 425 -403 92 -26 348 -26 440 -1 234 63 390 217 435
432 21 102 21 938 0 1040 -30 142 -124 276 -244 349 -80 49 -208 91 -227 75
-12 -10 -22 -9 -47 6 -37 22 -174 30 -272 14z m-240 -344 c0 -10 -6 -20 -12
-22 -8 -3 -13 5 -13 22 0 17 5 25 13 23 6 -3 12 -13 12 -23z m437 -65 c50 -14
97 -55 119 -105 17 -37 19 -74 19 -446 0 -277 -4 -417 -11 -440 -47 -138 -254
-173 -342 -58 -45 60 -48 96 -45 519 3 386 3 396 25 437 45 83 138 120 235 93z"/>
<path d="M28515 7710 c-273 -43 -460 -209 -511 -450 -13 -62 -15 -153 -12
-554 l3 -481 26 -66 c59 -154 138 -243 271 -308 130 -64 189 -76 368 -76 116
1 171 5 220 19 217 59 374 208 424 402 23 90 24 999 1 1089 -53 207 -212 356
-435 410 -80 19 -275 27 -355 15z m249 -434 c24 -14 51 -42 66 -68 l25 -43 3
-381 c4 -416 -1 -475 -44 -532 -49 -64 -160 -91 -237 -58 -39 17 -92 71 -106
109 -7 18 -11 174 -11 440 0 379 2 415 19 452 50 108 177 144 285 81z"/>
<path d="M10520 6740 l0 -940 530 0 530 0 0 205 0 205 -295 0 -295 0 0 170 0
170 245 0 245 0 0 200 0 200 -245 0 -245 0 0 160 0 160 295 0 295 0 0 205 0
205 -530 0 -530 0 0 -940z m855 -27 c-11 -46 -25 -56 -46 -37 -32 29 -16 64
29 64 21 0 23 -3 17 -27z"/>
<path d="M11770 7598 c21 -46 122 -260 224 -477 l186 -394 -169 -366 c-93
-201 -190 -410 -215 -464 l-45 -97 267 2 267 3 81 268 c45 147 85 271 88 274
14 15 31 -26 110 -278 l82 -264 287 -3 c158 -1 287 0 287 3 0 3 -99 217 -220
476 -121 259 -220 476 -220 482 0 7 92 213 205 459 113 246 205 450 205 453 0
3 -117 4 -261 3 l-261 -3 -28 -90 c-120 -380 -142 -445 -153 -445 -7 0 -48
114 -96 270 l-85 270 -287 0 -288 0 39 -82z"/>
<path d="M13390 6741 l0 -941 235 0 235 0 0 275 0 275 118 0 c392 2 622 165
688 490 20 102 15 312 -10 405 -45 161 -149 292 -286 358 -142 69 -152 70
-587 75 l-393 3 0 -940z m664 518 c56 -16 122 -80 142 -141 25 -77 16 -184
-22 -244 -44 -71 -109 -104 -223 -111 l-91 -6 0 257 0 256 78 0 c42 0 94 -5
116 -11z"/>
<path d="M14880 6740 l0 -940 510 0 510 0 0 205 0 205 -275 0 -275 0 0 735 0
735 -235 0 -235 0 0 -940z m148 633 c4 -24 -30 -48 -54 -39 -17 7 -19 52 -1
60 26 10 52 1 55 -21z"/>
<path d="M17630 7364 l0 -317 43 40 c46 43 135 99 143 91 2 -3 -15 -34 -38
-69 -47 -70 -101 -113 -130 -103 -17 5 -18 -18 -18 -600 l0 -606 235 0 235 0
0 159 c0 132 -3 160 -15 165 -24 9 -40 53 -26 70 7 8 19 12 27 9 12 -4 14 14
14 106 l0 111 54 0 c42 0 55 -4 61 -17 4 -10 53 -142 110 -293 57 -151 106
-283 110 -292 7 -17 29 -18 281 -18 151 0 274 3 274 6 0 4 -21 50 -46 103 -40
85 -47 94 -58 79 -18 -25 -26 -12 -15 26 8 30 -1 54 -96 256 -58 123 -105 226
-105 229 0 3 18 17 40 30 95 59 174 172 211 304 19 69 23 105 23 222 -1 119
-5 152 -26 222 -59 195 -190 322 -393 380 -51 14 -120 17 -477 21 l-418 3 0
-317z m180 22 c0 -7 -7 -20 -16 -27 -14 -11 -18 -10 -30 6 -21 28 -17 35 16
35 19 0 30 -5 30 -14z m100 -16 c0 -11 -4 -20 -9 -20 -14 0 -23 18 -16 30 10
17 25 11 25 -10z m236 -75 l-6 -25 78 0 c88 0 132 -11 180 -47 51 -38 76 -96
77 -178 0 -90 -32 -151 -103 -192 -42 -25 -58 -28 -159 -32 l-113 -3 0 208 0
207 -22 -20 c-63 -57 -155 -74 -204 -37 -41 30 -40 40 8 68 60 35 122 56 193
65 33 5 64 9 69 10 4 0 5 -10 2 -24z"/>
<path d="M19170 6740 l0 -940 530 0 530 0 0 205 0 205 -297 2 -298 3 -3 168
-2 167 250 0 250 0 0 200 0 200 -247 2 -248 3 -3 158 -3 157 301 0 300 0 0
205 0 205 -530 0 -530 0 0 -940z m860 103 c0 -25 -30 -53 -57 -53 -29 0 -30
23 -3 50 25 25 60 27 60 3z m-200 -104 c0 -5 -7 -9 -15 -9 -15 0 -20 12 -9 23
8 8 24 -1 24 -14z m262 -614 c-7 -38 -22 -30 -22 11 0 30 3 34 14 25 7 -6 11
-22 8 -36z m56 -17 c-4 -45 -38 -53 -38 -10 0 27 9 39 33 41 5 1 7 -14 5 -31z"/>
<path d="M21020 6740 l0 -940 235 0 235 0 0 345 0 345 41 0 c31 0 51 8 79 30
21 17 43 30 49 30 7 0 17 -13 22 -30 11 -29 13 -30 70 -30 l59 0 -6 29 c-5 24
-2 29 18 34 35 10 36 10 49 -28 11 -29 18 -35 41 -35 l28 0 0 205 0 205 -117
0 c-113 0 -116 -1 -99 -19 19 -20 11 -56 -18 -80 -17 -14 -20 -9 -17 29 0 8
-6 1 -14 -17 -27 -59 -38 -52 -33 20 l6 67 -79 0 -79 0 0 185 0 185 285 0 285
0 0 205 0 205 -520 0 -520 0 0 -940z m874 58 c9 -12 16 -39 16 -59 0 -31 -19
-149 -25 -157 -2 -2 -17 10 -35 26 l-32 30 11 72 c17 108 35 132 65 88z m-101
-40 c6 -18 -4 -78 -14 -78 -15 0 -20 20 -13 55 6 35 18 45 27 23z m-723 -883
c-7 -8 -16 -15 -21 -15 -13 0 -11 24 3 38 18 18 35 -3 18 -23z"/>
<path d="M22300 6740 l0 -940 235 0 235 0 0 310 0 310 54 0 54 0 73 -197 c41
-108 75 -189 77 -179 2 11 9 15 19 12 8 -3 26 -6 39 -6 21 0 24 -4 24 -39 0
-35 -3 -39 -30 -44 l-30 -6 29 -78 29 -78 276 -3 c152 -1 276 0 276 2 0 2 -13
33 -30 68 -18 38 -30 54 -30 41 0 -24 -32 -53 -80 -73 -64 -27 -49 26 20 70
28 18 50 35 50 40 0 4 -56 127 -125 274 -69 147 -125 270 -125 274 0 4 20 20
45 35 94 60 174 184 211 327 23 91 23 292 -1 385 -36 142 -116 264 -214 327
l-45 28 -12 -30 c-20 -47 -44 -39 -44 14 0 44 0 44 -47 60 -99 31 -171 36
-550 36 l-383 0 0 -940z m908 769 l-3 -24 -13 23 c-7 12 -10 27 -6 33 10 17
26 -6 22 -32z m-181 -263 c61 -29 97 -77 113 -152 21 -98 -18 -194 -98 -242
-42 -24 -58 -27 -159 -31 l-113 -3 0 226 0 226 103 0 c87 0 110 -4 154 -24z
m265 -612 c14 -31 1 -57 -30 -62 -15 -2 -26 6 -38 29 -15 31 -15 33 2 46 28
20 53 15 66 -13z m-836 -299 c10 -39 -29 -215 -47 -215 -14 0 -11 61 6 118 9
28 16 67 17 87 1 41 15 46 24 10z m130 -61 c-4 -12 -10 -14 -17 -7 -5 5 -7 17
-3 27 4 12 10 14 17 7 5 -5 7 -17 3 -27z m54 -56 c0 -70 -2 -79 -15 -68 -21
18 -28 71 -15 119 17 62 30 40 30 -51z m-62 -89 c-1 -13 -7 -23 -13 -22 -13 3
-18 30 -11 50 10 24 29 1 24 -28z m892 -130 c13 -24 8 -34 -15 -26 -16 7 -21
47 -5 47 5 0 14 -9 20 -21z"/>
<path d="M23830 6740 l0 -940 289 0 289 0 6 25 c4 14 17 32 30 41 22 14 28 14
53 1 16 -9 35 -27 43 -41 l13 -26 174 0 173 0 0 205 0 205 -297 2 -298 3 -3
168 -2 167 250 0 250 0 0 200 0 200 -247 2 -248 3 -3 158 -3 157 301 0 300 0
0 205 0 205 -535 0 -535 0 0 -940z m580 864 c0 -16 -16 -19 -25 -4 -8 13 4 32
16 25 5 -4 9 -13 9 -21z m199 -167 c-7 -15 -16 -27 -21 -27 -12 0 -10 44 4 58
19 19 30 -2 17 -31z m-639 -507 c0 -35 -5 -43 -32 -60 -43 -26 -53 -21 -52 24
2 43 28 76 61 76 20 0 23 -5 23 -40z"/>
<path d="M25160 6740 l0 -940 535 0 535 0 0 205 0 205 -297 2 -298 3 -3 168
-2 167 250 0 250 0 0 200 0 200 -79 0 -80 0 2 -27 c3 -39 -27 -43 -45 -6 l-13
28 -140 5 -140 5 -3 158 -3 157 301 0 300 0 0 205 0 205 -535 0 -535 0 0 -940z
m108 -242 c7 -7 12 -23 12 -36 0 -20 -4 -23 -32 -20 -29 3 -33 7 -36 36 -3 28
0 32 20 32 13 0 29 -5 36 -12z m67 -329 c8 -23 1 -34 -14 -24 -13 8 -15 45 -2
45 5 0 13 -9 16 -21z m82 -85 c3 -9 1 -25 -5 -35 -7 -10 -12 -26 -12 -34 0
-20 -6 -19 -30 5 -19 19 -18 40 3 68 13 17 36 15 44 -4z m18 -145 c-7 -20 -8
-21 -17 -5 -5 9 -7 24 -4 33 10 26 29 -1 21 -28z"/>
<path d="M26490 6740 l0 -940 328 0 c180 0 366 5 414 10 283 33 481 198 533
445 11 54 15 155 15 454 0 337 -2 382 -15 377 -25 -9 -64 12 -84 46 -11 17
-18 35 -15 39 2 4 27 15 55 24 49 17 50 18 43 48 -34 158 -141 291 -297 366
-133 65 -183 71 -607 71 l-370 0 0 -940z m720 508 c25 -13 55 -38 68 -57 12
-19 35 -42 51 -52 25 -15 61 -80 61 -111 0 -7 -18 6 -40 27 l-40 39 0 -362 c0
-389 -2 -406 -53 -460 -41 -44 -76 -55 -189 -60 l-108 -5 0 233 0 232 -25 -6
c-18 -5 -25 -2 -25 9 0 8 11 22 25 31 l25 16 0 274 0 274 103 0 c87 0 110 -4
147 -22z"/>
<path d="M29570 6740 l0 -940 235 0 235 0 -1 538 c0 295 -4 559 -8 585 -8 46
1 69 19 51 5 -5 51 -193 102 -419 l94 -410 174 -3 175 -2 39 176 c29 128 37
180 29 192 -7 12 -5 20 8 32 13 10 33 79 66 225 36 159 52 210 63 210 10 0 14
-7 11 -20 -3 -11 -6 -275 -8 -587 l-4 -568 236 0 235 0 0 940 0 940 -319 0
-319 0 -12 -52 c-6 -29 -47 -233 -91 -453 -45 -220 -85 -404 -90 -409 -6 -6
-12 -6 -18 0 -5 5 -52 213 -103 461 l-93 453 -327 0 -328 0 0 -940z m216 736
c6 -17 -12 -56 -26 -56 -6 0 -10 16 -10 35 0 25 4 35 15 35 9 0 18 -6 21 -14z
m424 -233 c0 -14 -6 -23 -15 -23 -11 0 -15 11 -15 43 1 39 2 41 15 23 8 -11
15 -30 15 -43z m8 -450 c-5 -25 -28 -28 -28 -4 0 12 6 21 16 21 9 0 14 -7 12
-17z m387 -273 c3 -5 13 -6 22 -3 11 4 14 2 11 -8 -6 -17 -47 -24 -60 -11 -11
11 -3 32 12 32 5 0 11 -4 15 -10z"/>
<path d="M10784 5320 c-71 -23 -144 -82 -176 -144 -17 -31 -23 -64 -26 -138
l-4 -98 106 0 106 0 0 50 c0 103 40 152 130 158 57 4 61 3 94 -30 44 -44 53
-89 32 -160 -20 -71 -58 -127 -280 -423 l-186 -248 0 -74 0 -73 345 0 345 0 0
90 0 90 -193 0 c-107 0 -196 3 -199 6 -3 3 64 96 148 207 97 126 170 232 194
282 115 234 46 448 -164 510 -70 21 -197 18 -272 -5z"/>
<path d="M11800 5326 c-73 -20 -125 -52 -169 -102 -68 -77 -71 -99 -71 -494 0
-395 3 -417 71 -494 69 -78 166 -116 299 -116 178 0 302 70 350 198 19 49 20
78 20 412 0 335 -1 363 -20 413 -33 89 -111 155 -215 182 -70 18 -202 18 -265
1z m221 -199 c67 -44 69 -56 69 -397 0 -341 -2 -353 -69 -397 -66 -45 -182
-24 -221 39 -19 31 -20 50 -20 358 0 308 1 327 20 358 39 63 155 84 221 39z"/>
<path d="M12824 5329 c-22 -5 -65 -24 -95 -42 -94 -56 -139 -149 -139 -287 l0
-60 110 0 110 0 0 60 c0 102 42 150 130 150 125 0 168 -116 95 -256 -20 -37
-125 -188 -235 -334 l-200 -267 0 -76 0 -77 345 0 345 0 0 90 0 90 -200 0
c-110 0 -200 3 -200 8 0 4 67 95 149 202 82 107 165 224 185 260 64 119 82
243 50 350 -24 80 -99 152 -189 179 -72 22 -186 27 -261 10z"/>
<path d="M17020 5325 c-74 -21 -130 -56 -178 -111 -74 -83 -77 -103 -77 -484
0 -398 2 -409 94 -501 84 -83 142 -103 301 -103 147 0 208 18 283 85 71 62
101 132 105 251 l4 98 -106 0 -106 0 0 -57 c-1 -119 -58 -184 -166 -191 -75
-5 -123 15 -162 66 l-27 35 0 317 0 317 27 35 c35 46 84 68 150 68 109 -1 178
-74 178 -192 l0 -58 106 0 106 0 -4 98 c-3 82 -8 107 -31 154 -35 71 -101 130
-176 159 -74 29 -241 36 -321 14z"/>
<path d="M18474 5320 c-71 -23 -144 -82 -176 -144 -17 -31 -23 -64 -26 -138
l-4 -98 106 0 106 0 0 50 c0 103 40 152 130 158 57 4 61 3 94 -30 44 -44 53
-89 32 -160 -20 -71 -58 -127 -280 -423 l-186 -248 0 -74 0 -73 345 0 345 0 0
90 0 90 -193 0 c-107 0 -196 3 -199 6 -3 3 64 96 148 207 97 126 170 232 194
282 115 234 46 448 -164 510 -70 21 -197 18 -272 -5z"/>
<path d="M21994 5329 c-22 -5 -65 -24 -95 -42 -94 -56 -139 -149 -139 -287 l0
-60 110 0 110 0 0 60 c0 102 42 150 130 150 125 0 168 -116 95 -256 -20 -37
-125 -188 -235 -334 l-200 -267 0 -76 0 -77 345 0 345 0 0 90 0 90 -200 0
c-110 0 -200 3 -200 8 0 4 67 95 149 202 82 107 165 224 185 260 64 119 82
243 50 350 -24 80 -99 152 -189 179 -72 22 -186 27 -261 10z"/>
<path d="M22980 5324 c-70 -19 -147 -70 -182 -120 -51 -74 -58 -128 -58 -474
0 -343 6 -398 56 -472 54 -84 182 -138 324 -138 170 0 286 64 344 190 20 43
21 61 21 420 0 359 -1 377 -21 420 -42 91 -113 148 -216 176 -68 18 -197 17
-268 -2z m217 -191 c72 -34 73 -39 73 -403 0 -364 -1 -369 -73 -403 -79 -38
-175 -13 -217 55 -19 31 -20 51 -20 348 0 297 1 317 20 348 42 68 138 93 217
55z"/>
<path d="M23984 5320 c-71 -23 -144 -82 -176 -144 -17 -31 -23 -64 -26 -138
l-4 -98 106 0 106 0 0 50 c0 103 40 152 130 158 57 4 61 3 94 -30 44 -44 53
-89 32 -160 -20 -71 -58 -127 -280 -423 l-186 -248 0 -74 0 -73 345 0 345 0 0
90 0 90 -193 0 c-107 0 -196 3 -199 6 -3 3 64 96 148 207 97 126 170 232 194
282 115 234 46 448 -164 510 -70 21 -197 18 -272 -5z"/>
<path d="M24944 5320 c-71 -23 -144 -82 -176 -144 -17 -31 -23 -64 -26 -138
l-4 -98 106 0 106 0 0 50 c0 103 40 152 130 158 57 4 61 3 94 -30 44 -44 53
-89 32 -160 -20 -71 -58 -127 -280 -423 l-186 -248 0 -74 0 -73 345 0 345 0 0
90 0 90 -193 0 c-107 0 -196 3 -199 6 -3 3 64 96 148 207 97 126 170 232 194
282 115 234 46 448 -164 510 -70 21 -197 18 -272 -5z"/>
<path d="M13658 5259 l-118 -59 0 -95 c0 -52 2 -95 5 -95 3 0 43 20 88 45 46
25 89 45 95 45 9 0 12 -121 12 -480 l0 -480 105 0 105 0 0 590 0 590 -87 -1
c-87 0 -89 -1 -205 -60z"/>
<path d="M14760 4730 l0 -592 253 4 c220 3 258 6 297 22 106 45 171 111 204
209 24 70 24 641 0 715 -27 84 -79 142 -168 187 l-78 40 -254 3 -254 4 0 -592z
m466 379 c26 -12 53 -36 66 -57 23 -36 23 -42 23 -322 0 -280 0 -286 -23 -322
-36 -59 -89 -78 -210 -78 l-102 0 0 400 0 400 102 0 c82 0 110 -4 144 -21z"/>
<path d="M15840 4730 l0 -590 320 0 320 0 0 95 0 95 -210 0 -210 0 0 155 0
155 180 0 180 0 0 95 0 95 -180 0 -180 0 0 150 0 150 210 0 210 0 0 95 0 95
-320 0 -320 0 0 -590z"/>
<path d="M19210 5225 l0 -95 221 0 c207 0 221 -1 214 -17 -4 -10 -85 -229
-182 -488 -96 -258 -177 -473 -179 -477 -3 -5 50 -7 117 -6 l123 3 183 505
c182 502 183 505 183 587 l0 83 -340 0 -340 0 0 -95z"/>
<path d="M26618 4849 l-3 -471 -37 -34 c-31 -28 -45 -34 -83 -34 -25 0 -59 7
-75 15 -49 25 -60 51 -60 142 l0 83 -111 0 -112 0 5 -102 c6 -128 30 -191 96
-249 66 -58 155 -83 277 -77 83 3 102 8 162 39 73 37 122 95 143 167 6 23 10
220 10 515 l0 477 -105 0 -104 0 -3 -471z"/>
<path d="M27199 4730 l-146 -590 117 0 116 0 18 93 c9 50 22 109 27 130 l10
38 156 -3 157 -3 25 -125 26 -125 121 -3 121 -3 -146 591 -146 590 -155 0
-155 0 -146 -590z m360 125 c28 -138 51 -256 51 -263 0 -9 -30 -12 -115 -12
-66 0 -115 4 -115 10 0 12 100 500 106 519 10 31 23 -14 73 -254z"/>
<path d="M28220 4730 l0 -590 105 0 105 0 -2 395 c-2 259 0 395 7 395 6 0 78
-178 160 -395 l150 -395 133 0 132 0 0 590 0 590 -110 0 -111 0 3 -395 c2
-254 0 -394 -7 -392 -5 2 -77 180 -160 395 l-150 392 -127 0 -128 0 0 -590z"/>
<path d="M29868 5259 l-118 -59 0 -95 c0 -52 2 -95 5 -95 3 0 43 20 88 45 46
25 89 45 95 45 9 0 12 -121 12 -480 l0 -480 105 0 105 0 0 590 0 590 -87 -1
c-87 0 -89 -1 -205 -60z"/>
<path d="M30470 5225 l0 -95 221 0 c207 0 221 -1 214 -17 -4 -10 -85 -229
-182 -488 -96 -258 -177 -473 -179 -477 -3 -5 50 -7 117 -6 l123 3 183 505
c182 502 183 505 183 587 l0 83 -340 0 -340 0 0 -95z"/>
<path d="M20610 4630 l0 -90 210 0 210 0 0 90 0 90 -210 0 -210 0 0 -90z"/>
</g>
</svg>
